<svg width="1280" height="401" viewBox="0 0 1280 401" fill="none" xmlns="http://www.w3.org/2000/svg">
<path d="M0.74939 200.815C0.74939 90.3584 90.2925 0.815308 200.749 0.815308H1079.25C1189.71 0.815308 1279.25 90.3584 1279.25 200.815V200.815C1279.25 311.272 1189.71 400.815 1079.25 400.815H200.75C90.2927 400.815 0.74939 311.272 0.74939 200.815V200.815Z" fill="#2BBFB0"/>
<mask id="path-2-inside-1_332_809" fill="white">
<path d="M25.7494 200.815C25.7494 104.165 104.1 25.8153 200.749 25.8153H375.749V375.815H200.749C104.1 375.815 25.7494 297.465 25.7494 200.815V200.815Z"/>
</mask>
<path d="M25.7494 200.815C25.7494 104.165 104.1 25.8153 200.749 25.8153H375.749V375.815H200.749C104.1 375.815 25.7494 297.465 25.7494 200.815V200.815Z" fill="white"/>
<path d="M25.7494 25.8153H375.749H25.7494ZM375.749 375.815H25.7494H375.749ZM25.7494 375.815V25.8153V375.815ZM378.749 25.8153V375.815H372.749V25.8153H378.749Z" fill="#C4D4FF" mask="url(#path-2-inside-1_332_809)"/>
</svg>
