<svg width="23" height="16" viewBox="0 0 23 16" fill="none" xmlns="http://www.w3.org/2000/svg">
<path d="M1.50879 7.297C0.956504 7.297 0.508789 7.74471 0.508789 8.297C0.508789 8.84928 0.956504 9.297 1.50879 9.297V7.297ZM22.2159 9.0041C22.6064 8.61358 22.6064 7.98041 22.2159 7.58989L15.8519 1.22593C15.4614 0.835405 14.8282 0.835405 14.4377 1.22593C14.0472 1.61645 14.0472 2.24962 14.4377 2.64014L20.0946 8.297L14.4377 13.9539C14.0472 14.3444 14.0472 14.9775 14.4377 15.3681C14.8282 15.7586 15.4614 15.7586 15.8519 15.3681L22.2159 9.0041ZM1.50879 9.297H21.5088V7.297H1.50879V9.297Z" fill="white"/>
</svg>
