<svg width="29" height="26" viewBox="0 0 29 26" fill="none" xmlns="http://www.w3.org/2000/svg">
<path d="M27.7093 19.8708C27.7093 20.2868 27.6023 20.7144 27.3749 21.1304C27.1475 21.5464 26.8533 21.9393 26.4654 22.3091C25.8101 22.9331 25.0878 23.3838 24.272 23.6727C23.4695 23.9616 22.6001 24.1118 21.6639 24.1118C20.2997 24.1118 18.8418 23.8345 17.3038 23.2682C15.7657 22.702 14.2276 21.9393 12.7029 20.9802C11.1648 20.0095 9.70693 18.9348 8.31596 17.7445C6.93836 16.5427 5.69452 15.2831 4.58442 13.9657C3.48769 12.6484 2.60496 11.331 1.96298 10.0252C1.32099 8.70779 1 7.4482 1 6.24638C1 5.46058 1.1605 4.70945 1.48149 4.01609C1.80248 3.31118 2.31072 2.66405 3.01958 2.08626C3.87556 1.35823 4.81179 1 5.80152 1C6.17601 1 6.5505 1.06934 6.88487 1.20801C7.23261 1.34668 7.54023 1.55468 7.78097 1.85514L10.8839 5.63392C11.1246 5.92282 11.2985 6.1886 11.4189 6.44283C11.5393 6.68551 11.6061 6.92818 11.6061 7.14774C11.6061 7.42508 11.5125 7.70243 11.3253 7.96821C11.1514 8.234 10.8973 8.51134 10.5763 8.78868L9.5598 9.7016C9.41268 9.82871 9.34581 9.97894 9.34581 10.1638C9.34581 10.2563 9.35918 10.3372 9.38593 10.4296C9.42606 10.5221 9.46618 10.5914 9.49293 10.6607C9.73368 11.0421 10.1483 11.539 10.7368 12.1399C11.3386 12.7408 11.9806 13.3533 12.6761 13.9657C13.3983 14.5782 14.0938 15.1444 14.8027 15.6644C15.4982 16.1729 16.0733 16.5196 16.528 16.7276C16.5949 16.7507 16.6751 16.7854 16.7688 16.82C16.8758 16.8547 16.9828 16.8663 17.1031 16.8663C17.3305 16.8663 17.5044 16.7969 17.6515 16.6698L18.668 15.8031C19.0023 15.5142 19.3233 15.2947 19.6309 15.156C19.9386 14.9942 20.2462 14.9133 20.5806 14.9133C20.8347 14.9133 21.1022 14.9595 21.3964 15.0635C21.6907 15.1675 21.9983 15.3178 22.3326 15.5142L26.7597 18.2299C27.1074 18.4379 27.3481 18.6805 27.4953 18.9694C27.629 19.2583 27.7093 19.5472 27.7093 19.8708Z" stroke="#333E50" stroke-width="2" stroke-miterlimit="10"/>
<path d="M23.0682 9.08915C23.0682 8.3958 22.4396 7.33266 21.5034 6.46596C20.6474 5.66861 19.5106 5.04459 18.3871 5.04459" stroke="#333E50" stroke-width="2" stroke-linecap="round" stroke-linejoin="round"/>
<path d="M27.7494 9.08914C27.7494 4.617 23.5631 1 18.3871 1" stroke="#333E50" stroke-width="2" stroke-linecap="round" stroke-linejoin="round"/>
</svg>
