<svg width="1278" height="704" viewBox="0 0 1278 704" fill="none" xmlns="http://www.w3.org/2000/svg">
<rect width="1278" height="703.366" fill="#2BBFB0" fill-opacity="0.15"/>
<path d="M551.355 66.6758H556.727C556.583 68.5768 556.056 70.263 555.145 71.7344C554.233 73.1927 552.964 74.3385 551.336 75.1719C549.708 76.0052 547.736 76.4219 545.418 76.4219C543.634 76.4219 542.026 76.1094 540.594 75.4844C539.174 74.8464 537.957 73.9414 536.941 72.7695C535.939 71.5846 535.171 70.1654 534.637 68.5117C534.103 66.8451 533.836 64.9766 533.836 62.9062V60.7383C533.836 58.668 534.109 56.7995 534.656 55.1328C535.203 53.4661 535.984 52.0469 537 50.875C538.029 49.6901 539.259 48.7786 540.691 48.1406C542.137 47.5026 543.751 47.1836 545.535 47.1836C547.853 47.1836 549.812 47.6133 551.414 48.4727C553.016 49.319 554.259 50.4844 555.145 51.9688C556.03 53.4531 556.564 55.1589 556.746 57.0859H551.375C551.271 55.888 551.01 54.8724 550.594 54.0391C550.19 53.2057 549.578 52.5742 548.758 52.1445C547.951 51.7018 546.876 51.4805 545.535 51.4805C544.493 51.4805 543.576 51.6758 542.781 52.0664C542 52.457 541.349 53.043 540.828 53.8242C540.307 54.5924 539.917 55.556 539.656 56.7148C539.396 57.8607 539.266 59.1888 539.266 60.6992V62.9062C539.266 64.3516 539.383 65.6471 539.617 66.793C539.852 67.9388 540.216 68.9089 540.711 69.7031C541.206 70.4974 541.844 71.1029 542.625 71.5195C543.406 71.9362 544.337 72.1445 545.418 72.1445C546.733 72.1445 547.801 71.9362 548.621 71.5195C549.454 71.1029 550.086 70.4909 550.516 69.6836C550.958 68.8763 551.238 67.8737 551.355 66.6758ZM559.578 65.6797V65.2695C559.578 63.7201 559.799 62.2943 560.242 60.9922C560.685 59.6771 561.329 58.5378 562.176 57.5742C563.022 56.6107 564.057 55.862 565.281 55.3281C566.505 54.7812 567.898 54.5078 569.461 54.5078C571.049 54.5078 572.456 54.7812 573.68 55.3281C574.917 55.862 575.958 56.6107 576.805 57.5742C577.651 58.5378 578.296 59.6771 578.738 60.9922C579.181 62.2943 579.402 63.7201 579.402 65.2695V65.6797C579.402 67.2161 579.181 68.6419 578.738 69.957C578.296 71.2591 577.651 72.3984 576.805 73.375C575.958 74.3385 574.923 75.0872 573.699 75.6211C572.475 76.1549 571.076 76.4219 569.5 76.4219C567.938 76.4219 566.538 76.1549 565.301 75.6211C564.064 75.0872 563.022 74.3385 562.176 73.375C561.329 72.3984 560.685 71.2591 560.242 69.957C559.799 68.6419 559.578 67.2161 559.578 65.6797ZM564.734 65.2695V65.6797C564.734 66.6042 564.826 67.4701 565.008 68.2773C565.19 69.0846 565.47 69.7943 565.848 70.4062C566.225 71.0182 566.714 71.5 567.312 71.8516C567.924 72.1901 568.654 72.3594 569.5 72.3594C570.333 72.3594 571.049 72.1901 571.648 71.8516C572.247 71.5 572.736 71.0182 573.113 70.4062C573.504 69.7943 573.79 69.0846 573.973 68.2773C574.155 67.4701 574.246 66.6042 574.246 65.6797V65.2695C574.246 64.3581 574.155 63.5052 573.973 62.7109C573.79 61.9036 573.504 61.194 573.113 60.582C572.736 59.957 572.241 59.4688 571.629 59.1172C571.03 58.7526 570.307 58.5703 569.461 58.5703C568.628 58.5703 567.911 58.7526 567.312 59.1172C566.714 59.4688 566.225 59.957 565.848 60.582C565.47 61.194 565.19 61.9036 565.008 62.7109C564.826 63.5052 564.734 64.3581 564.734 65.2695ZM588.211 59.4102V76.0312H583.055V54.8984H587.898L588.211 59.4102ZM587.391 64.7031H585.867C585.88 63.1667 586.089 61.7734 586.492 60.5234C586.896 59.2734 587.462 58.1992 588.191 57.3008C588.934 56.4023 589.812 55.7122 590.828 55.2305C591.844 54.7487 592.977 54.5078 594.227 54.5078C595.242 54.5078 596.16 54.651 596.98 54.9375C597.801 55.224 598.504 55.6797 599.09 56.3047C599.689 56.9297 600.145 57.75 600.457 58.7656C600.783 59.7682 600.945 61.0052 600.945 62.4766V76.0312H595.75V62.4375C595.75 61.474 595.607 60.7122 595.32 60.1523C595.047 59.5924 594.643 59.1953 594.109 58.9609C593.589 58.7266 592.944 58.6094 592.176 58.6094C591.382 58.6094 590.685 58.7721 590.086 59.0977C589.5 59.4102 589.005 59.8464 588.602 60.4062C588.211 60.9661 587.911 61.6107 587.703 62.3398C587.495 63.069 587.391 63.8568 587.391 64.7031ZM615.496 54.8984V58.6094H603.387V54.8984H615.496ZM606.629 49.7031H611.805V69.9375C611.805 70.5625 611.889 71.0443 612.059 71.3828C612.228 71.7214 612.482 71.9492 612.82 72.0664C613.159 72.1836 613.562 72.2422 614.031 72.2422C614.37 72.2422 614.682 72.2227 614.969 72.1836C615.255 72.1445 615.496 72.1055 615.691 72.0664L615.711 75.9336C615.281 76.0768 614.793 76.194 614.246 76.2852C613.712 76.3763 613.107 76.4219 612.43 76.4219C611.271 76.4219 610.255 76.2266 609.383 75.8359C608.51 75.4323 607.833 74.7878 607.352 73.9023C606.87 73.0039 606.629 71.819 606.629 70.3477V49.7031ZM630.574 71.5391V61.793C630.574 61.0768 630.451 60.4583 630.203 59.9375C629.956 59.4167 629.578 59.013 629.07 58.7266C628.562 58.4401 627.918 58.2969 627.137 58.2969C626.447 58.2969 625.841 58.4141 625.32 58.6484C624.812 58.8828 624.422 59.2148 624.148 59.6445C623.875 60.0612 623.738 60.543 623.738 61.0898H618.562C618.562 60.2174 618.771 59.3906 619.188 58.6094C619.604 57.8151 620.197 57.112 620.965 56.5C621.746 55.875 622.677 55.3867 623.758 55.0352C624.852 54.6836 626.076 54.5078 627.43 54.5078C629.031 54.5078 630.457 54.7812 631.707 55.3281C632.97 55.862 633.96 56.6693 634.676 57.75C635.405 58.8307 635.77 60.1914 635.77 61.832V71.0508C635.77 72.1055 635.835 73.0104 635.965 73.7656C636.108 74.5078 636.316 75.1523 636.59 75.6992V76.0312H631.336C631.089 75.4974 630.9 74.8203 630.77 74C630.639 73.1667 630.574 72.3464 630.574 71.5391ZM631.297 63.1602L631.336 66.2266H628.074C627.267 66.2266 626.557 66.3112 625.945 66.4805C625.333 66.6367 624.832 66.8711 624.441 67.1836C624.051 67.4831 623.758 67.8477 623.562 68.2773C623.367 68.694 623.27 69.1693 623.27 69.7031C623.27 70.224 623.387 70.6927 623.621 71.1094C623.868 71.526 624.22 71.8581 624.676 72.1055C625.145 72.3398 625.691 72.457 626.316 72.457C627.228 72.457 628.022 72.2747 628.699 71.9102C629.376 71.5326 629.904 71.0768 630.281 70.543C630.659 70.0091 630.861 69.5013 630.887 69.0195L632.371 71.2461C632.189 71.7799 631.915 72.3464 631.551 72.9453C631.186 73.5443 630.717 74.1042 630.145 74.625C629.572 75.1458 628.882 75.5755 628.074 75.9141C627.267 76.2526 626.329 76.4219 625.262 76.4219C623.895 76.4219 622.671 76.1484 621.59 75.6016C620.509 75.0547 619.656 74.306 619.031 73.3555C618.406 72.4049 618.094 71.3242 618.094 70.1133C618.094 68.9935 618.302 68.0039 618.719 67.1445C619.135 66.2852 619.754 65.5625 620.574 64.9766C621.395 64.3776 622.41 63.9284 623.621 63.6289C624.845 63.3164 626.245 63.1602 627.82 63.1602H631.297ZM649.09 72.3594C649.819 72.3594 650.47 72.2161 651.043 71.9297C651.616 71.6432 652.072 71.2396 652.41 70.7188C652.762 70.1979 652.951 69.5924 652.977 68.9023H657.84C657.814 70.3346 657.41 71.6172 656.629 72.75C655.848 73.8828 654.806 74.7812 653.504 75.4453C652.215 76.0964 650.77 76.4219 649.168 76.4219C647.54 76.4219 646.121 76.1484 644.91 75.6016C643.699 75.0547 642.69 74.293 641.883 73.3164C641.089 72.3398 640.49 71.207 640.086 69.918C639.695 68.6289 639.5 67.2487 639.5 65.7773V65.1523C639.5 63.681 639.695 62.3008 640.086 61.0117C640.49 59.7227 641.089 58.5898 641.883 57.6133C642.69 56.6367 643.699 55.875 644.91 55.3281C646.121 54.7812 647.534 54.5078 649.148 54.5078C650.854 54.5078 652.352 54.8398 653.641 55.5039C654.943 56.168 655.958 57.1055 656.688 58.3164C657.43 59.5273 657.814 60.9531 657.84 62.5938H652.977C652.951 61.8385 652.781 61.1615 652.469 60.5625C652.156 59.9635 651.714 59.4818 651.141 59.1172C650.568 58.7526 649.871 58.5703 649.051 58.5703C648.178 58.5703 647.449 58.7526 646.863 59.1172C646.29 59.4818 645.841 59.9831 645.516 60.6211C645.203 61.2461 644.982 61.9492 644.852 62.7305C644.734 63.4987 644.676 64.306 644.676 65.1523V65.7773C644.676 66.6367 644.734 67.457 644.852 68.2383C644.982 69.0195 645.203 69.7227 645.516 70.3477C645.841 70.9596 646.29 71.4479 646.863 71.8125C647.449 72.1771 648.191 72.3594 649.09 72.3594ZM671.277 54.8984V58.6094H659.168V54.8984H671.277ZM662.41 49.7031H667.586V69.9375C667.586 70.5625 667.671 71.0443 667.84 71.3828C668.009 71.7214 668.263 71.9492 668.602 72.0664C668.94 72.1836 669.344 72.2422 669.812 72.2422C670.151 72.2422 670.464 72.2227 670.75 72.1836C671.036 72.1445 671.277 72.1055 671.473 72.0664L671.492 75.9336C671.062 76.0768 670.574 76.194 670.027 76.2852C669.493 76.3763 668.888 76.4219 668.211 76.4219C667.052 76.4219 666.036 76.2266 665.164 75.8359C664.292 75.4323 663.615 74.7878 663.133 73.9023C662.651 73.0039 662.41 71.819 662.41 70.3477V49.7031ZM700.887 47.5938H706.258V66.4805C706.258 68.6549 705.789 70.4844 704.852 71.9688C703.914 73.4401 702.638 74.5534 701.023 75.3086C699.409 76.0508 697.573 76.4219 695.516 76.4219C693.432 76.4219 691.577 76.0508 689.949 75.3086C688.322 74.5534 687.046 73.4401 686.121 71.9688C685.197 70.4844 684.734 68.6549 684.734 66.4805V47.5938H690.105V66.4805C690.105 67.8086 690.327 68.8958 690.77 69.7422C691.212 70.5755 691.837 71.194 692.645 71.5977C693.452 72.0013 694.409 72.2031 695.516 72.2031C696.635 72.2031 697.592 72.0013 698.387 71.5977C699.194 71.194 699.812 70.5755 700.242 69.7422C700.672 68.8958 700.887 67.8086 700.887 66.4805V47.5938ZM722.586 70.25C722.586 69.8073 722.469 69.4102 722.234 69.0586C722 68.707 721.557 68.388 720.906 68.1016C720.268 67.8021 719.331 67.5221 718.094 67.2617C717 67.0273 715.991 66.7344 715.066 66.3828C714.142 66.0312 713.348 65.6081 712.684 65.1133C712.02 64.6055 711.499 64.013 711.121 63.3359C710.757 62.6458 710.574 61.8516 710.574 60.9531C710.574 60.0807 710.763 59.2604 711.141 58.4922C711.518 57.7109 712.065 57.0273 712.781 56.4414C713.497 55.8424 714.37 55.3737 715.398 55.0352C716.427 54.6836 717.586 54.5078 718.875 54.5078C720.672 54.5078 722.215 54.8008 723.504 55.3867C724.806 55.9727 725.802 56.7799 726.492 57.8086C727.182 58.8242 727.527 59.9701 727.527 61.2461H722.371C722.371 60.6862 722.241 60.1784 721.98 59.7227C721.733 59.2669 721.349 58.9023 720.828 58.6289C720.307 58.3424 719.65 58.1992 718.855 58.1992C718.139 58.1992 717.534 58.3164 717.039 58.5508C716.557 58.7852 716.193 59.0911 715.945 59.4688C715.698 59.8464 715.574 60.263 715.574 60.7188C715.574 61.0573 715.639 61.3633 715.77 61.6367C715.913 61.8971 716.141 62.138 716.453 62.3594C716.766 62.5807 717.189 62.7826 717.723 62.9648C718.27 63.1471 718.94 63.3229 719.734 63.4922C721.31 63.8047 722.684 64.2214 723.855 64.7422C725.04 65.25 725.965 65.9271 726.629 66.7734C727.293 67.6198 727.625 68.7005 727.625 70.0156C727.625 70.9531 727.423 71.8125 727.02 72.5938C726.616 73.362 726.03 74.0326 725.262 74.6055C724.493 75.1784 723.576 75.6276 722.508 75.9531C721.44 76.2656 720.236 76.4219 718.895 76.4219C716.954 76.4219 715.314 76.0768 713.973 75.3867C712.632 74.6836 711.616 73.7982 710.926 72.7305C710.236 71.6497 709.891 70.5299 709.891 69.3711H714.832C714.871 70.1914 715.092 70.849 715.496 71.3438C715.9 71.8385 716.408 72.1966 717.02 72.418C717.645 72.6263 718.302 72.7305 718.992 72.7305C719.773 72.7305 720.431 72.6263 720.965 72.418C721.499 72.1966 721.902 71.9036 722.176 71.5391C722.449 71.1615 722.586 70.7318 722.586 70.25Z" fill="#333E50"/>
<rect x="339.5" y="167.663" width="599" height="49" rx="4.5" fill="white" stroke="#E4E4E4"/>
<path d="M359.706 198.663V184.663H367.666V186.303H361.526V191.363H367.666V193.003H361.526V198.663H359.706ZM373.65 198.903C372.584 198.903 371.73 198.583 371.09 197.943C370.464 197.29 370.15 196.35 370.15 195.123V189.443H371.89V194.703C371.89 196.503 372.637 197.403 374.13 197.403C375.01 197.403 375.664 197.123 376.09 196.563C376.53 195.99 376.75 195.296 376.75 194.483V189.443H378.49V198.663H376.75V196.983C376.497 197.57 376.097 198.036 375.55 198.383C375.017 198.73 374.384 198.903 373.65 198.903ZM381.481 198.663V184.663H383.221V198.663H381.481ZM386.227 198.663V184.663H387.967V198.663H386.227ZM396.131 198.663V184.663H398.071L404.371 195.623V184.663H406.111V198.663H404.191L397.891 187.703V198.663H396.131ZM413.035 198.903C411.608 198.903 410.488 198.45 409.675 197.543C408.875 196.636 408.475 195.476 408.475 194.063C408.475 192.663 408.888 191.503 409.715 190.583C410.555 189.663 411.675 189.203 413.075 189.203C413.795 189.203 414.442 189.37 415.015 189.703C415.588 190.036 416.022 190.49 416.315 191.063V189.443H418.035V198.663H416.315V197.043C416.022 197.603 415.575 198.056 414.975 198.403C414.375 198.736 413.728 198.903 413.035 198.903ZM413.275 197.343C414.248 197.343 415.008 197.03 415.555 196.403C416.115 195.763 416.395 194.983 416.395 194.063C416.395 193.13 416.115 192.35 415.555 191.723C415.008 191.083 414.248 190.763 413.275 190.763C412.342 190.763 411.595 191.076 411.035 191.703C410.475 192.316 410.195 193.103 410.195 194.063C410.195 195.023 410.475 195.81 411.035 196.423C411.595 197.036 412.342 197.343 413.275 197.343ZM421.031 198.663V189.443H422.771V191.123C422.958 190.576 423.291 190.123 423.771 189.763C424.251 189.39 424.838 189.203 425.531 189.203C427.118 189.203 428.105 189.863 428.491 191.183C428.705 190.61 429.078 190.136 429.611 189.763C430.145 189.39 430.758 189.203 431.451 189.203C433.665 189.203 434.771 190.41 434.771 192.823V198.663H433.031V193.163C433.031 191.523 432.365 190.703 431.031 190.703C429.525 190.703 428.771 191.756 428.771 193.863V198.663H427.031V193.283C427.031 191.563 426.371 190.703 425.051 190.703C424.331 190.703 423.771 190.97 423.371 191.503C422.971 192.023 422.771 192.81 422.771 193.863V198.663H421.031ZM445.852 193.523C445.852 193.776 445.832 194.123 445.792 194.563H438.652C438.665 195.443 438.932 196.136 439.452 196.643C439.972 197.136 440.672 197.383 441.552 197.383C442.779 197.383 443.592 196.93 443.992 196.023H445.732C445.572 196.876 445.105 197.57 444.332 198.103C443.559 198.636 442.632 198.903 441.552 198.903C440.139 198.903 439.012 198.47 438.172 197.603C437.345 196.723 436.932 195.536 436.932 194.043C436.932 192.576 437.345 191.403 438.172 190.523C438.999 189.643 440.099 189.203 441.472 189.203C442.779 189.203 443.832 189.603 444.632 190.403C445.445 191.203 445.852 192.243 445.852 193.523ZM438.652 193.223H444.132C444.132 192.41 443.892 191.77 443.412 191.303C442.945 190.836 442.292 190.603 441.452 190.603C440.625 190.603 439.959 190.843 439.452 191.323C438.959 191.803 438.692 192.436 438.652 193.223Z" fill="#BBBBBB"/>
<rect x="339.5" y="232.663" width="599" height="49" rx="4.5" fill="white" stroke="#E4E4E4"/>
<path d="M359.706 263.663V249.663H367.666V251.303H361.526V255.883H367.666V257.523H361.526V262.023H367.666V263.663H359.706ZM370.504 263.663V254.443H372.244V256.123C372.431 255.576 372.764 255.123 373.244 254.763C373.724 254.39 374.311 254.203 375.004 254.203C376.591 254.203 377.577 254.863 377.964 256.183C378.177 255.61 378.551 255.136 379.084 254.763C379.617 254.39 380.231 254.203 380.924 254.203C383.137 254.203 384.244 255.41 384.244 257.823V263.663H382.504V258.163C382.504 256.523 381.837 255.703 380.504 255.703C378.997 255.703 378.244 256.756 378.244 258.863V263.663H376.504V258.283C376.504 256.563 375.844 255.703 374.524 255.703C373.804 255.703 373.244 255.97 372.844 256.503C372.444 257.023 372.244 257.81 372.244 258.863V263.663H370.504ZM390.965 263.903C389.538 263.903 388.418 263.45 387.605 262.543C386.805 261.636 386.405 260.476 386.405 259.063C386.405 257.663 386.818 256.503 387.645 255.583C388.485 254.663 389.605 254.203 391.005 254.203C391.725 254.203 392.371 254.37 392.945 254.703C393.518 255.036 393.951 255.49 394.245 256.063V254.443H395.965V263.663H394.245V262.043C393.951 262.603 393.505 263.056 392.905 263.403C392.305 263.736 391.658 263.903 390.965 263.903ZM391.205 262.343C392.178 262.343 392.938 262.03 393.485 261.403C394.045 260.763 394.325 259.983 394.325 259.063C394.325 258.13 394.045 257.35 393.485 256.723C392.938 256.083 392.178 255.763 391.205 255.763C390.271 255.763 389.525 256.076 388.965 256.703C388.405 257.316 388.125 258.103 388.125 259.063C388.125 260.023 388.405 260.81 388.965 261.423C389.525 262.036 390.271 262.343 391.205 262.343ZM399.841 252.863C399.428 252.863 399.088 252.73 398.821 252.463C398.554 252.196 398.421 251.863 398.421 251.463C398.421 251.063 398.554 250.73 398.821 250.463C399.088 250.183 399.428 250.043 399.841 250.043C400.241 250.043 400.574 250.183 400.841 250.463C401.108 250.73 401.241 251.063 401.241 251.463C401.241 251.863 401.108 252.196 400.841 252.463C400.574 252.73 400.241 252.863 399.841 252.863ZM398.961 263.663V254.443H400.701V263.663H398.961ZM403.707 263.663V249.663H405.447V263.663H403.707ZM421.492 263.663L420.832 261.523H415.012L414.352 263.663H412.372L417.112 249.663H418.732L423.472 263.663H421.492ZM415.532 259.863H420.312L417.912 252.183L415.532 259.863ZM432.233 249.663H433.973V263.663H432.253V262.043C431.959 262.603 431.513 263.056 430.913 263.403C430.313 263.736 429.666 263.903 428.973 263.903C427.546 263.903 426.426 263.45 425.613 262.543C424.813 261.636 424.413 260.476 424.413 259.063C424.413 257.663 424.826 256.503 425.653 255.583C426.493 254.663 427.613 254.203 429.013 254.203C429.733 254.203 430.379 254.37 430.953 254.703C431.526 255.036 431.959 255.49 432.253 256.063V255.103H432.233V249.663ZM429.213 262.343C430.186 262.343 430.946 262.03 431.493 261.403C432.053 260.763 432.333 259.983 432.333 259.063C432.333 258.13 432.053 257.35 431.493 256.723C430.946 256.083 430.186 255.763 429.213 255.763C428.279 255.763 427.533 256.076 426.973 256.703C426.413 257.316 426.133 258.103 426.133 259.063C426.133 260.023 426.413 260.81 426.973 261.423C427.533 262.036 428.279 262.343 429.213 262.343ZM444.049 249.663H445.789V263.663H444.069V262.043C443.776 262.603 443.329 263.056 442.729 263.403C442.129 263.736 441.482 263.903 440.789 263.903C439.362 263.903 438.242 263.45 437.429 262.543C436.629 261.636 436.229 260.476 436.229 259.063C436.229 257.663 436.642 256.503 437.469 255.583C438.309 254.663 439.429 254.203 440.829 254.203C441.549 254.203 442.196 254.37 442.769 254.703C443.342 255.036 443.776 255.49 444.069 256.063V255.103H444.049V249.663ZM441.029 262.343C442.002 262.343 442.762 262.03 443.309 261.403C443.869 260.763 444.149 259.983 444.149 259.063C444.149 258.13 443.869 257.35 443.309 256.723C442.762 256.083 442.002 255.763 441.029 255.763C440.096 255.763 439.349 256.076 438.789 256.703C438.229 257.316 437.949 258.103 437.949 259.063C437.949 260.023 438.229 260.81 438.789 261.423C439.349 262.036 440.096 262.343 441.029 262.343ZM448.785 263.663V254.443H450.525V256.543C450.699 255.81 451.039 255.256 451.545 254.883C452.052 254.496 452.612 254.303 453.225 254.303C453.585 254.303 453.865 254.33 454.065 254.383V255.983C453.865 255.943 453.579 255.923 453.205 255.923C452.339 255.923 451.672 256.27 451.205 256.963C450.752 257.656 450.525 258.543 450.525 259.623V263.663H448.785ZM463.918 258.523C463.918 258.776 463.898 259.123 463.858 259.563H456.718C456.732 260.443 456.998 261.136 457.518 261.643C458.038 262.136 458.738 262.383 459.618 262.383C460.845 262.383 461.658 261.93 462.058 261.023H463.798C463.638 261.876 463.172 262.57 462.398 263.103C461.625 263.636 460.698 263.903 459.618 263.903C458.205 263.903 457.078 263.47 456.238 262.603C455.412 261.723 454.998 260.536 454.998 259.043C454.998 257.576 455.412 256.403 456.238 255.523C457.065 254.643 458.165 254.203 459.538 254.203C460.845 254.203 461.898 254.603 462.698 255.403C463.512 256.203 463.918 257.243 463.918 258.523ZM456.718 258.223H462.198C462.198 257.41 461.958 256.77 461.478 256.303C461.012 255.836 460.358 255.603 459.518 255.603C458.692 255.603 458.025 255.843 457.518 256.323C457.025 256.803 456.758 257.436 456.718 258.223ZM469.268 263.903C468.108 263.903 467.175 263.616 466.468 263.043C465.775 262.456 465.428 261.743 465.428 260.903H467.148C467.148 261.37 467.348 261.756 467.748 262.063C468.148 262.356 468.681 262.503 469.348 262.503C469.868 262.503 470.281 262.383 470.588 262.143C470.895 261.903 471.048 261.576 471.048 261.163C471.048 260.51 470.748 260.11 470.148 259.963L467.688 259.323C466.368 258.963 465.708 258.136 465.708 256.843C465.708 256.083 466.028 255.456 466.668 254.963C467.308 254.456 468.141 254.203 469.168 254.203C470.288 254.203 471.155 254.463 471.768 254.983C472.395 255.49 472.708 256.156 472.708 256.983H470.988C470.988 256.543 470.821 256.196 470.488 255.943C470.155 255.676 469.688 255.543 469.088 255.543C468.608 255.543 468.208 255.656 467.888 255.883C467.581 256.096 467.428 256.39 467.428 256.763C467.428 257.39 467.768 257.783 468.448 257.943L470.748 258.583C471.401 258.756 471.908 259.063 472.268 259.503C472.628 259.943 472.808 260.443 472.808 261.003C472.808 261.883 472.495 262.59 471.868 263.123C471.241 263.643 470.375 263.903 469.268 263.903ZM478.272 263.903C477.112 263.903 476.179 263.616 475.472 263.043C474.779 262.456 474.432 261.743 474.432 260.903H476.152C476.152 261.37 476.352 261.756 476.752 262.063C477.152 262.356 477.685 262.503 478.352 262.503C478.872 262.503 479.285 262.383 479.592 262.143C479.899 261.903 480.052 261.576 480.052 261.163C480.052 260.51 479.752 260.11 479.152 259.963L476.692 259.323C475.372 258.963 474.712 258.136 474.712 256.843C474.712 256.083 475.032 255.456 475.672 254.963C476.312 254.456 477.145 254.203 478.172 254.203C479.292 254.203 480.159 254.463 480.772 254.983C481.399 255.49 481.712 256.156 481.712 256.983H479.992C479.992 256.543 479.825 256.196 479.492 255.943C479.159 255.676 478.692 255.543 478.092 255.543C477.612 255.543 477.212 255.656 476.892 255.883C476.585 256.096 476.432 256.39 476.432 256.763C476.432 257.39 476.772 257.783 477.452 257.943L479.752 258.583C480.405 258.756 480.912 259.063 481.272 259.503C481.632 259.943 481.812 260.443 481.812 261.003C481.812 261.883 481.499 262.59 480.872 263.123C480.245 263.643 479.379 263.903 478.272 263.903Z" fill="#BBBBBB"/>
<rect x="339.5" y="297.663" width="599" height="49" rx="4.5" fill="white" stroke="#E4E4E4"/>
<path d="M364.726 314.663C366.099 314.663 367.226 315.116 368.106 316.023C368.986 316.93 369.426 318.09 369.426 319.503C369.426 320.903 368.986 322.056 368.106 322.963C367.226 323.87 366.099 324.323 364.726 324.323H361.526V328.663H359.706V314.663H364.726ZM364.626 322.683C365.492 322.683 366.206 322.383 366.766 321.783C367.326 321.183 367.606 320.423 367.606 319.503C367.606 318.57 367.326 317.803 366.766 317.203C366.206 316.603 365.492 316.303 364.626 316.303H361.526V322.683H364.626ZM376.187 319.203C378.481 319.203 379.627 320.463 379.627 322.983V328.663H377.887V323.743C377.887 322.703 377.701 321.936 377.327 321.443C376.967 320.95 376.381 320.703 375.567 320.703C374.727 320.703 374.081 320.976 373.627 321.523C373.187 322.07 372.967 322.823 372.967 323.783V328.663H371.227V314.663H372.967V321.143C373.221 320.543 373.621 320.07 374.167 319.723C374.727 319.376 375.401 319.203 376.187 319.203ZM386.595 328.903C385.129 328.903 383.962 328.443 383.095 327.523C382.229 326.59 381.795 325.43 381.795 324.043C381.795 322.656 382.229 321.503 383.095 320.583C383.962 319.663 385.129 319.203 386.595 319.203C388.049 319.203 389.209 319.67 390.075 320.603C390.955 321.523 391.395 322.67 391.395 324.043C391.395 325.43 390.955 326.59 390.075 327.523C389.209 328.443 388.049 328.903 386.595 328.903ZM384.335 326.423C384.895 327.036 385.649 327.343 386.595 327.343C387.542 327.343 388.289 327.036 388.835 326.423C389.382 325.796 389.655 325.003 389.655 324.043C389.655 323.096 389.382 322.316 388.835 321.703C388.289 321.076 387.542 320.763 386.595 320.763C385.649 320.763 384.895 321.076 384.335 321.703C383.789 322.316 383.515 323.103 383.515 324.063C383.515 325.01 383.789 325.796 384.335 326.423ZM393.649 328.663V319.443H395.389V321.143C395.642 320.543 396.042 320.07 396.589 319.723C397.149 319.376 397.822 319.203 398.609 319.203C400.902 319.203 402.049 320.463 402.049 322.983V328.663H400.309V323.743C400.309 322.703 400.122 321.936 399.749 321.443C399.389 320.95 398.802 320.703 397.989 320.703C397.149 320.703 396.502 320.976 396.049 321.523C395.609 322.07 395.389 322.823 395.389 323.783V328.663H393.649ZM413.137 323.523C413.137 323.776 413.117 324.123 413.077 324.563H405.937C405.951 325.443 406.217 326.136 406.737 326.643C407.257 327.136 407.957 327.383 408.837 327.383C410.064 327.383 410.877 326.93 411.277 326.023H413.017C412.857 326.876 412.391 327.57 411.617 328.103C410.844 328.636 409.917 328.903 408.837 328.903C407.424 328.903 406.297 328.47 405.457 327.603C404.631 326.723 404.217 325.536 404.217 324.043C404.217 322.576 404.631 321.403 405.457 320.523C406.284 319.643 407.384 319.203 408.757 319.203C410.064 319.203 411.117 319.603 411.917 320.403C412.731 321.203 413.137 322.243 413.137 323.523ZM405.937 323.223H411.417C411.417 322.41 411.177 321.77 410.697 321.303C410.231 320.836 409.577 320.603 408.737 320.603C407.911 320.603 407.244 320.843 406.737 321.323C406.244 321.803 405.977 322.436 405.937 323.223ZM420.545 328.663V314.663H422.485L428.785 325.623V314.663H430.525V328.663H428.605L422.305 317.703V328.663H420.545ZM437.029 328.903C435.962 328.903 435.109 328.583 434.469 327.943C433.842 327.29 433.529 326.35 433.529 325.123V319.443H435.269V324.703C435.269 326.503 436.016 327.403 437.509 327.403C438.389 327.403 439.042 327.123 439.469 326.563C439.909 325.99 440.129 325.296 440.129 324.483V319.443H441.869V328.663H440.129V326.983C439.876 327.57 439.476 328.036 438.929 328.383C438.396 328.73 437.762 328.903 437.029 328.903ZM444.86 328.663V319.443H446.6V321.123C446.786 320.576 447.12 320.123 447.6 319.763C448.08 319.39 448.666 319.203 449.36 319.203C450.946 319.203 451.933 319.863 452.32 321.183C452.533 320.61 452.906 320.136 453.44 319.763C453.973 319.39 454.586 319.203 455.28 319.203C457.493 319.203 458.6 320.41 458.6 322.823V328.663H456.86V323.163C456.86 321.523 456.193 320.703 454.86 320.703C453.353 320.703 452.6 321.756 452.6 323.863V328.663H450.86V323.283C450.86 321.563 450.2 320.703 448.88 320.703C448.16 320.703 447.6 320.97 447.2 321.503C446.8 322.023 446.6 322.81 446.6 323.863V328.663H444.86ZM466.62 319.203C467.94 319.203 469.014 319.656 469.84 320.563C470.667 321.456 471.08 322.623 471.08 324.063C471.08 325.476 470.654 326.636 469.8 327.543C468.947 328.45 467.854 328.903 466.52 328.903C465.814 328.903 465.16 328.736 464.56 328.403C463.974 328.07 463.534 327.616 463.24 327.043V328.663H461.5V314.663H463.24V321.063C463.534 320.49 463.98 320.036 464.58 319.703C465.194 319.37 465.874 319.203 466.62 319.203ZM466.28 327.343C467.174 327.343 467.907 327.036 468.48 326.423C469.054 325.81 469.34 325.023 469.34 324.063C469.34 323.103 469.054 322.316 468.48 321.703C467.907 321.076 467.174 320.763 466.28 320.763C465.36 320.763 464.607 321.07 464.02 321.683C463.447 322.296 463.16 323.09 463.16 324.063C463.16 325.023 463.447 325.81 464.02 326.423C464.607 327.036 465.36 327.343 466.28 327.343ZM481.497 323.523C481.497 323.776 481.477 324.123 481.437 324.563H474.297C474.31 325.443 474.577 326.136 475.097 326.643C475.617 327.136 476.317 327.383 477.197 327.383C478.423 327.383 479.237 326.93 479.637 326.023H481.377C481.217 326.876 480.75 327.57 479.977 328.103C479.203 328.636 478.277 328.903 477.197 328.903C475.783 328.903 474.657 328.47 473.817 327.603C472.99 326.723 472.577 325.536 472.577 324.043C472.577 322.576 472.99 321.403 473.817 320.523C474.643 319.643 475.743 319.203 477.117 319.203C478.423 319.203 479.477 319.603 480.277 320.403C481.09 321.203 481.497 322.243 481.497 323.523ZM474.297 323.223H479.777C479.777 322.41 479.537 321.77 479.057 321.303C478.59 320.836 477.937 320.603 477.097 320.603C476.27 320.603 475.603 320.843 475.097 321.323C474.603 321.803 474.337 322.436 474.297 323.223ZM483.746 328.663V319.443H485.486V321.543C485.66 320.81 486 320.256 486.506 319.883C487.013 319.496 487.573 319.303 488.186 319.303C488.546 319.303 488.826 319.33 489.026 319.383V320.983C488.826 320.943 488.54 320.923 488.166 320.923C487.3 320.923 486.633 321.27 486.166 321.963C485.713 322.656 485.486 323.543 485.486 324.623V328.663H483.746Z" fill="#BBBBBB"/>
<rect x="516.5" y="577.163" width="245" height="43" rx="5" fill="#2BBFB0"/>
<path d="M625.729 601.569C625.729 601.237 625.676 600.944 625.572 600.69C625.475 600.43 625.299 600.196 625.045 599.987C624.798 599.779 624.452 599.58 624.01 599.392C623.574 599.203 623.02 599.011 622.35 598.815C621.646 598.607 621.012 598.376 620.445 598.122C619.879 597.862 619.394 597.565 618.99 597.233C618.587 596.901 618.277 596.521 618.062 596.091C617.848 595.661 617.74 595.17 617.74 594.616C617.74 594.063 617.854 593.552 618.082 593.083C618.31 592.614 618.635 592.207 619.059 591.862C619.488 591.511 619.999 591.237 620.592 591.042C621.184 590.847 621.845 590.749 622.574 590.749C623.642 590.749 624.547 590.954 625.289 591.364C626.038 591.768 626.607 592.299 626.998 592.956C627.389 593.607 627.584 594.304 627.584 595.046H625.709C625.709 594.512 625.595 594.04 625.367 593.63C625.139 593.213 624.794 592.888 624.332 592.653C623.87 592.412 623.284 592.292 622.574 592.292C621.904 592.292 621.35 592.393 620.914 592.595C620.478 592.797 620.152 593.07 619.938 593.415C619.729 593.76 619.625 594.154 619.625 594.597C619.625 594.896 619.687 595.17 619.811 595.417C619.941 595.658 620.139 595.882 620.406 596.091C620.68 596.299 621.025 596.491 621.441 596.667C621.865 596.843 622.369 597.012 622.955 597.175C623.762 597.403 624.459 597.657 625.045 597.937C625.631 598.216 626.113 598.532 626.49 598.884C626.874 599.229 627.158 599.623 627.34 600.065C627.529 600.502 627.623 600.996 627.623 601.55C627.623 602.129 627.506 602.653 627.271 603.122C627.037 603.591 626.702 603.991 626.266 604.323C625.829 604.655 625.305 604.912 624.693 605.095C624.088 605.271 623.411 605.358 622.662 605.358C622.005 605.358 621.357 605.267 620.719 605.085C620.087 604.903 619.511 604.629 618.99 604.265C618.476 603.9 618.062 603.451 617.75 602.917C617.444 602.377 617.291 601.752 617.291 601.042H619.166C619.166 601.53 619.26 601.95 619.449 602.302C619.638 602.647 619.895 602.933 620.221 603.161C620.553 603.389 620.927 603.558 621.344 603.669C621.767 603.773 622.206 603.825 622.662 603.825C623.32 603.825 623.876 603.734 624.332 603.552C624.788 603.369 625.133 603.109 625.367 602.771C625.608 602.432 625.729 602.032 625.729 601.569ZM634.137 605.358C633.401 605.358 632.734 605.235 632.135 604.987C631.542 604.733 631.031 604.379 630.602 603.923C630.178 603.467 629.853 602.927 629.625 602.302C629.397 601.677 629.283 600.993 629.283 600.251V599.841C629.283 598.981 629.41 598.216 629.664 597.546C629.918 596.869 630.263 596.296 630.699 595.827C631.135 595.358 631.63 595.004 632.184 594.763C632.737 594.522 633.31 594.401 633.902 594.401C634.658 594.401 635.309 594.532 635.855 594.792C636.409 595.052 636.861 595.417 637.213 595.886C637.564 596.348 637.825 596.895 637.994 597.526C638.163 598.151 638.248 598.835 638.248 599.577V600.388H630.357V598.913H636.441V598.776C636.415 598.308 636.318 597.852 636.148 597.409C635.986 596.966 635.725 596.602 635.367 596.315C635.009 596.029 634.521 595.886 633.902 595.886C633.492 595.886 633.115 595.974 632.77 596.149C632.424 596.319 632.128 596.573 631.881 596.911C631.633 597.25 631.441 597.663 631.305 598.151C631.168 598.64 631.1 599.203 631.1 599.841V600.251C631.1 600.752 631.168 601.224 631.305 601.667C631.448 602.103 631.653 602.487 631.92 602.819C632.193 603.151 632.522 603.412 632.906 603.601C633.297 603.789 633.74 603.884 634.234 603.884C634.872 603.884 635.413 603.754 635.855 603.493C636.298 603.233 636.686 602.884 637.018 602.448L638.111 603.317C637.883 603.662 637.594 603.991 637.242 604.304C636.891 604.616 636.458 604.87 635.943 605.065C635.436 605.261 634.833 605.358 634.137 605.358ZM642.164 596.853V605.163H640.357V594.597H642.066L642.164 596.853ZM641.734 599.479L640.982 599.45C640.989 598.728 641.096 598.06 641.305 597.448C641.513 596.83 641.806 596.293 642.184 595.837C642.561 595.381 643.01 595.03 643.531 594.782C644.059 594.528 644.641 594.401 645.279 594.401C645.8 594.401 646.269 594.473 646.686 594.616C647.102 594.753 647.457 594.974 647.75 595.28C648.049 595.586 648.277 595.983 648.434 596.472C648.59 596.953 648.668 597.543 648.668 598.239V605.163H646.852V598.22C646.852 597.666 646.77 597.224 646.607 596.892C646.445 596.553 646.207 596.309 645.895 596.159C645.582 596.003 645.198 595.925 644.742 595.925C644.293 595.925 643.883 596.019 643.512 596.208C643.147 596.397 642.831 596.657 642.564 596.989C642.304 597.321 642.099 597.702 641.949 598.132C641.806 598.555 641.734 599.004 641.734 599.479ZM658.072 603.112V590.163H659.889V605.163H658.229L658.072 603.112ZM650.963 599.997V599.792C650.963 598.985 651.061 598.252 651.256 597.595C651.458 596.931 651.741 596.361 652.105 595.886C652.477 595.41 652.916 595.046 653.424 594.792C653.938 594.532 654.511 594.401 655.143 594.401C655.807 594.401 656.386 594.519 656.881 594.753C657.382 594.981 657.805 595.316 658.15 595.759C658.502 596.195 658.779 596.722 658.98 597.341C659.182 597.959 659.322 598.659 659.4 599.44V600.339C659.329 601.114 659.189 601.81 658.98 602.429C658.779 603.047 658.502 603.575 658.15 604.011C657.805 604.447 657.382 604.782 656.881 605.017C656.38 605.244 655.794 605.358 655.123 605.358C654.505 605.358 653.938 605.225 653.424 604.958C652.916 604.691 652.477 604.317 652.105 603.835C651.741 603.353 651.458 602.787 651.256 602.136C651.061 601.478 650.963 600.765 650.963 599.997ZM652.779 599.792V599.997C652.779 600.524 652.831 601.019 652.936 601.481C653.046 601.944 653.215 602.351 653.443 602.702C653.671 603.054 653.961 603.33 654.312 603.532C654.664 603.728 655.084 603.825 655.572 603.825C656.171 603.825 656.663 603.698 657.047 603.444C657.438 603.19 657.75 602.855 657.984 602.438C658.219 602.022 658.401 601.569 658.531 601.081V598.728C658.453 598.369 658.339 598.024 658.189 597.692C658.046 597.354 657.857 597.054 657.623 596.794C657.395 596.527 657.112 596.315 656.773 596.159C656.441 596.003 656.048 595.925 655.592 595.925C655.097 595.925 654.671 596.029 654.312 596.237C653.961 596.439 653.671 596.719 653.443 597.077C653.215 597.429 653.046 597.839 652.936 598.308C652.831 598.77 652.779 599.265 652.779 599.792Z" fill="white"/>
<rect x="339.5" y="362.663" width="599" height="199" rx="4.5" fill="white" stroke="#E4E4E4"/>
<path d="M359.706 393.663V379.663H361.526V385.883H368.046V379.663H369.866V393.663H368.046V387.523H361.526V393.663H359.706ZM376.785 393.903C375.358 393.903 374.238 393.45 373.425 392.543C372.625 391.636 372.225 390.476 372.225 389.063C372.225 387.663 372.638 386.503 373.465 385.583C374.305 384.663 375.425 384.203 376.825 384.203C377.545 384.203 378.192 384.37 378.765 384.703C379.338 385.036 379.772 385.49 380.065 386.063V384.443H381.785V393.663H380.065V392.043C379.772 392.603 379.325 393.056 378.725 393.403C378.125 393.736 377.478 393.903 376.785 393.903ZM377.025 392.343C377.998 392.343 378.758 392.03 379.305 391.403C379.865 390.763 380.145 389.983 380.145 389.063C380.145 388.13 379.865 387.35 379.305 386.723C378.758 386.083 377.998 385.763 377.025 385.763C376.092 385.763 375.345 386.076 374.785 386.703C374.225 387.316 373.945 388.103 373.945 389.063C373.945 390.023 374.225 390.81 374.785 391.423C375.345 392.036 376.092 392.343 377.025 392.343ZM387.401 393.663L383.341 384.443H385.201L388.101 391.343L391.021 384.443H392.881L388.821 393.663H387.401ZM402.239 388.523C402.239 388.776 402.219 389.123 402.179 389.563H395.039C395.052 390.443 395.319 391.136 395.839 391.643C396.359 392.136 397.059 392.383 397.939 392.383C399.165 392.383 399.979 391.93 400.379 391.023H402.119C401.959 391.876 401.492 392.57 400.719 393.103C399.945 393.636 399.019 393.903 397.939 393.903C396.525 393.903 395.399 393.47 394.559 392.603C393.732 391.723 393.319 390.536 393.319 389.043C393.319 387.576 393.732 386.403 394.559 385.523C395.385 384.643 396.485 384.203 397.859 384.203C399.165 384.203 400.219 384.603 401.019 385.403C401.832 386.203 402.239 387.243 402.239 388.523ZM395.039 388.223H400.519C400.519 387.41 400.279 386.77 399.799 386.303C399.332 385.836 398.679 385.603 397.839 385.603C397.012 385.603 396.345 385.843 395.839 386.323C395.345 386.803 395.079 387.436 395.039 388.223ZM413.367 393.903C411.94 393.903 410.82 393.45 410.007 392.543C409.207 391.636 408.807 390.476 408.807 389.063C408.807 387.663 409.22 386.503 410.047 385.583C410.887 384.663 412.007 384.203 413.407 384.203C414.127 384.203 414.774 384.37 415.347 384.703C415.92 385.036 416.354 385.49 416.647 386.063V384.443H418.367V393.663H416.647V392.043C416.354 392.603 415.907 393.056 415.307 393.403C414.707 393.736 414.06 393.903 413.367 393.903ZM413.607 392.343C414.58 392.343 415.34 392.03 415.887 391.403C416.447 390.763 416.727 389.983 416.727 389.063C416.727 388.13 416.447 387.35 415.887 386.723C415.34 386.083 414.58 385.763 413.607 385.763C412.674 385.763 411.927 386.076 411.367 386.703C410.807 387.316 410.527 388.103 410.527 389.063C410.527 390.023 410.807 390.81 411.367 391.423C411.927 392.036 412.674 392.343 413.607 392.343ZM421.363 393.663V384.443H423.103V386.143C423.357 385.543 423.757 385.07 424.303 384.723C424.863 384.376 425.537 384.203 426.323 384.203C428.617 384.203 429.763 385.463 429.763 387.983V393.663H428.023V388.743C428.023 387.703 427.837 386.936 427.463 386.443C427.103 385.95 426.517 385.703 425.703 385.703C424.863 385.703 424.217 385.976 423.763 386.523C423.323 387.07 423.103 387.823 423.103 388.783V393.663H421.363ZM439.272 384.443H441.012V393.843C441.012 395.296 440.592 396.403 439.752 397.163C439.005 397.83 437.999 398.163 436.732 398.163C435.399 398.163 434.359 397.843 433.612 397.203C432.932 396.63 432.585 395.836 432.572 394.823H434.332C434.399 396.076 435.192 396.703 436.712 396.703C438.419 396.703 439.272 395.71 439.272 393.723V392.003C438.659 393.27 437.592 393.903 436.072 393.903C434.912 393.903 434.039 393.55 433.452 392.843C432.865 392.123 432.572 391.156 432.572 389.943V384.443H434.312V389.583C434.312 390.476 434.485 391.163 434.832 391.643C435.192 392.11 435.799 392.343 436.652 392.343C437.492 392.343 438.139 392.043 438.592 391.443C439.045 390.83 439.272 390.076 439.272 389.183V384.443ZM447.88 392.203C448.36 392.203 448.746 392.17 449.04 392.103V393.643C448.64 393.736 448.126 393.783 447.5 393.783C447.22 393.783 446.973 393.77 446.76 393.743C446.56 393.716 446.32 393.643 446.04 393.523C445.76 393.403 445.526 393.236 445.34 393.023C445.153 392.796 444.993 392.483 444.86 392.083C444.726 391.67 444.66 391.176 444.66 390.603V385.903H443V384.443H444.66V381.523H446.4V384.443H448.72V385.903H446.4V390.223C446.4 391.036 446.52 391.57 446.76 391.823C447 392.076 447.373 392.203 447.88 392.203ZM456.129 384.203C458.422 384.203 459.569 385.463 459.569 387.983V393.663H457.829V388.743C457.829 387.703 457.642 386.936 457.269 386.443C456.909 385.95 456.322 385.703 455.509 385.703C454.669 385.703 454.022 385.976 453.569 386.523C453.129 387.07 452.909 387.823 452.909 388.783V393.663H451.169V379.663H452.909V386.143C453.162 385.543 453.562 385.07 454.109 384.723C454.669 384.376 455.342 384.203 456.129 384.203ZM463.357 382.863C462.943 382.863 462.603 382.73 462.337 382.463C462.07 382.196 461.937 381.863 461.937 381.463C461.937 381.063 462.07 380.73 462.337 380.463C462.603 380.183 462.943 380.043 463.357 380.043C463.757 380.043 464.09 380.183 464.357 380.463C464.623 380.73 464.757 381.063 464.757 381.463C464.757 381.863 464.623 382.196 464.357 382.463C464.09 382.73 463.757 382.863 463.357 382.863ZM462.477 393.663V384.443H464.217V393.663H462.477ZM467.223 393.663V384.443H468.963V386.143C469.216 385.543 469.616 385.07 470.163 384.723C470.723 384.376 471.396 384.203 472.183 384.203C474.476 384.203 475.623 385.463 475.623 387.983V393.663H473.883V388.743C473.883 387.703 473.696 386.936 473.323 386.443C472.963 385.95 472.376 385.703 471.563 385.703C470.723 385.703 470.076 385.976 469.623 386.523C469.183 387.07 468.963 387.823 468.963 388.783V393.663H467.223ZM485.631 384.443H487.351V393.423C487.351 395.183 486.818 396.476 485.751 397.303C484.978 397.876 483.918 398.163 482.571 398.163C481.225 398.163 480.138 397.863 479.311 397.263C478.431 396.65 477.971 395.836 477.931 394.823H479.751C479.831 395.383 480.105 395.836 480.571 396.183C481.051 396.53 481.718 396.703 482.571 396.703C484.611 396.703 485.631 395.65 485.631 393.543V392.043C485.351 392.616 484.905 393.07 484.291 393.403C483.678 393.736 483.031 393.903 482.351 393.903C480.965 393.903 479.858 393.443 479.031 392.523C478.205 391.603 477.791 390.45 477.791 389.063C477.791 387.676 478.218 386.523 479.071 385.603C479.938 384.67 481.045 384.203 482.391 384.203C483.098 384.203 483.738 384.37 484.311 384.703C484.898 385.036 485.338 385.49 485.631 386.063V384.443ZM482.591 392.343C483.538 392.343 484.291 392.03 484.851 391.403C485.425 390.776 485.711 389.996 485.711 389.063C485.711 388.13 485.425 387.35 484.851 386.723C484.291 386.083 483.538 385.763 482.591 385.763C481.685 385.763 480.945 386.076 480.371 386.703C479.798 387.316 479.511 388.103 479.511 389.063C479.511 390.01 479.798 390.796 480.371 391.423C480.945 392.036 481.685 392.343 482.591 392.343ZM499.266 392.203C499.746 392.203 500.133 392.17 500.426 392.103V393.643C500.026 393.736 499.513 393.783 498.886 393.783C498.606 393.783 498.36 393.77 498.146 393.743C497.946 393.716 497.706 393.643 497.426 393.523C497.146 393.403 496.913 393.236 496.726 393.023C496.54 392.796 496.38 392.483 496.246 392.083C496.113 391.67 496.046 391.176 496.046 390.603V385.903H494.386V384.443H496.046V381.523H497.786V384.443H500.106V385.903H497.786V390.223C497.786 391.036 497.906 391.57 498.146 391.823C498.386 392.076 498.76 392.203 499.266 392.203ZM506.478 393.903C505.011 393.903 503.845 393.443 502.978 392.523C502.111 391.59 501.678 390.43 501.678 389.043C501.678 387.656 502.111 386.503 502.978 385.583C503.845 384.663 505.011 384.203 506.478 384.203C507.931 384.203 509.091 384.67 509.958 385.603C510.838 386.523 511.278 387.67 511.278 389.043C511.278 390.43 510.838 391.59 509.958 392.523C509.091 393.443 507.931 393.903 506.478 393.903ZM504.218 391.423C504.778 392.036 505.531 392.343 506.478 392.343C507.425 392.343 508.171 392.036 508.718 391.423C509.265 390.796 509.538 390.003 509.538 389.043C509.538 388.096 509.265 387.316 508.718 386.703C508.171 386.076 507.425 385.763 506.478 385.763C505.531 385.763 504.778 386.076 504.218 386.703C503.671 387.316 503.398 388.103 503.398 389.063C503.398 390.01 503.671 390.796 504.218 391.423ZM521.69 393.903C520.53 393.903 519.597 393.616 518.89 393.043C518.197 392.456 517.85 391.743 517.85 390.903H519.57C519.57 391.37 519.77 391.756 520.17 392.063C520.57 392.356 521.103 392.503 521.77 392.503C522.29 392.503 522.703 392.383 523.01 392.143C523.317 391.903 523.47 391.576 523.47 391.163C523.47 390.51 523.17 390.11 522.57 389.963L520.11 389.323C518.79 388.963 518.13 388.136 518.13 386.843C518.13 386.083 518.45 385.456 519.09 384.963C519.73 384.456 520.563 384.203 521.59 384.203C522.71 384.203 523.577 384.463 524.19 384.983C524.817 385.49 525.13 386.156 525.13 386.983H523.41C523.41 386.543 523.243 386.196 522.91 385.943C522.577 385.676 522.11 385.543 521.51 385.543C521.03 385.543 520.63 385.656 520.31 385.883C520.003 386.096 519.85 386.39 519.85 386.763C519.85 387.39 520.19 387.783 520.87 387.943L523.17 388.583C523.823 388.756 524.33 389.063 524.69 389.503C525.05 389.943 525.23 390.443 525.23 391.003C525.23 391.883 524.917 392.59 524.29 393.123C523.663 393.643 522.797 393.903 521.69 393.903ZM531.414 393.903C529.987 393.903 528.867 393.45 528.054 392.543C527.254 391.636 526.854 390.476 526.854 389.063C526.854 387.663 527.267 386.503 528.094 385.583C528.934 384.663 530.054 384.203 531.454 384.203C532.174 384.203 532.821 384.37 533.394 384.703C533.967 385.036 534.401 385.49 534.694 386.063V384.443H536.414V393.663H534.694V392.043C534.401 392.603 533.954 393.056 533.354 393.403C532.754 393.736 532.107 393.903 531.414 393.903ZM531.654 392.343C532.627 392.343 533.387 392.03 533.934 391.403C534.494 390.763 534.774 389.983 534.774 389.063C534.774 388.13 534.494 387.35 533.934 386.723C533.387 386.083 532.627 385.763 531.654 385.763C530.721 385.763 529.974 386.076 529.414 386.703C528.854 387.316 528.574 388.103 528.574 389.063C528.574 390.023 528.854 390.81 529.414 391.423C529.974 392.036 530.721 392.343 531.654 392.343ZM546.01 384.443H547.75V393.843C547.75 395.296 547.33 396.403 546.49 397.163C545.744 397.83 544.737 398.163 543.47 398.163C542.137 398.163 541.097 397.843 540.35 397.203C539.67 396.63 539.324 395.836 539.31 394.823H541.07C541.137 396.076 541.93 396.703 543.45 396.703C545.157 396.703 546.01 395.71 546.01 393.723V392.003C545.397 393.27 544.33 393.903 542.81 393.903C541.65 393.903 540.777 393.55 540.19 392.843C539.604 392.123 539.31 391.156 539.31 389.943V384.443H541.05V389.583C541.05 390.476 541.224 391.163 541.57 391.643C541.93 392.11 542.537 392.343 543.39 392.343C544.23 392.343 544.877 392.043 545.33 391.443C545.784 390.83 546.01 390.076 546.01 389.183V384.443ZM552.638 389.443V389.143C552.638 388.476 552.725 387.943 552.898 387.543C553.071 387.143 553.418 386.75 553.938 386.363L554.958 385.663C555.851 385.023 556.298 384.19 556.298 383.163C556.298 382.496 556.085 381.956 555.658 381.543C555.245 381.13 554.678 380.923 553.958 380.923C553.131 380.923 552.471 381.17 551.978 381.663C551.498 382.156 551.258 382.863 551.258 383.783H549.438C549.438 382.383 549.845 381.29 550.658 380.503C551.485 379.716 552.611 379.323 554.038 379.323C555.345 379.323 556.365 379.67 557.098 380.363C557.831 381.056 558.198 381.97 558.198 383.103C558.198 383.903 558.018 384.576 557.658 385.123C557.311 385.67 556.818 386.196 556.178 386.703L555.318 387.323C554.945 387.603 554.691 387.87 554.558 388.123C554.438 388.363 554.378 388.696 554.378 389.123V389.443H552.638ZM554.538 393.383C554.258 393.663 553.911 393.803 553.498 393.803C553.085 393.803 552.738 393.663 552.458 393.383C552.178 393.09 552.038 392.743 552.038 392.343C552.038 391.943 552.178 391.603 552.458 391.323C552.738 391.03 553.085 390.883 553.498 390.883C553.911 390.883 554.258 391.03 554.538 391.323C554.818 391.603 554.958 391.943 554.958 392.343C554.958 392.743 554.818 393.09 554.538 393.383Z" fill="#BBBBBB"/>
<circle cx="1136.71" cy="534.956" r="100" transform="rotate(-42.5563 1136.71 534.956)" fill="#2BBFB0" fill-opacity="0.31"/>
<circle cx="156.226" cy="163.689" r="100" transform="rotate(136.408 156.226 163.689)" fill="#2BBFB0" fill-opacity="0.31"/>
<circle cx="1023.75" cy="432.999" r="25" transform="rotate(-42.5563 1023.75 432.999)" fill="#2BBFB0" fill-opacity="0.25"/>
<circle cx="247.737" cy="256.108" r="25" transform="rotate(136.408 247.737 256.108)" fill="#2BBFB0" fill-opacity="0.25"/>
</svg>
