<svg width="585" height="148" viewBox="0 0 585 148" fill="none" xmlns="http://www.w3.org/2000/svg">
<path d="M20.1547 29.3674V34.803H5.93689V29.3674H20.1547ZM7.98083 2.09985V34.803H1.39978V2.09985H7.98083ZM18.2455 15.3518V20.6301H5.93689V15.3518H18.2455ZM20.1097 2.09985V7.55786H5.93689V2.09985H20.1097ZM30.015 15.5315V34.803H23.7035V10.5002H29.6332L30.015 15.5315ZM29.139 21.8206L27.3871 21.8655C27.3571 20.1584 27.5069 18.5862 27.8363 17.1487C28.1657 15.7112 28.6599 14.4609 29.3187 13.3977C29.9926 12.3346 30.8386 11.511 31.8568 10.927C32.875 10.343 34.0655 10.051 35.4281 10.051C36.3116 10.051 37.1276 10.2157 37.8763 10.5452C38.625 10.8596 39.2689 11.3612 39.808 12.05C40.362 12.7239 40.7888 13.6073 41.0883 14.7004C41.4027 15.7786 41.5599 17.0738 41.5599 18.5862V34.803H35.2709V19.3499C35.2709 18.2717 35.1661 17.4482 34.9564 16.8792C34.7468 16.2952 34.4473 15.8909 34.058 15.6663C33.6687 15.4267 33.1895 15.3069 32.6205 15.3069C32.0215 15.3069 31.4974 15.4716 31.0482 15.801C30.599 16.1305 30.2321 16.5946 29.9476 17.1936C29.6781 17.7776 29.4685 18.4664 29.3187 19.26C29.184 20.0536 29.1241 20.9071 29.139 21.8206ZM40.9535 21.1917L38.6849 21.4836C38.655 19.8814 38.7972 18.3915 39.1117 17.0139C39.4261 15.6213 39.9128 14.4084 40.5717 13.3752C41.2305 12.3271 42.0541 11.511 43.0424 10.927C44.0456 10.343 45.2061 10.051 46.5238 10.051C47.5121 10.051 48.4105 10.2157 49.2191 10.5452C50.0277 10.8746 50.7165 11.4062 51.2855 12.1399C51.8695 12.8586 52.3112 13.8095 52.6107 14.9924C52.9252 16.1604 53.0824 17.5979 53.0824 19.3049V34.803H46.7709V19.3274C46.7709 18.2343 46.6661 17.3958 46.4564 16.8118C46.2618 16.2278 45.9623 15.831 45.558 15.6213C45.1687 15.4117 44.7045 15.3069 44.1654 15.3069C43.6263 15.3069 43.1547 15.4566 42.7504 15.7561C42.361 16.0556 42.0316 16.4749 41.7621 17.0139C41.4926 17.553 41.2904 18.1744 41.1556 18.8782C41.0209 19.5819 40.9535 20.3531 40.9535 21.1917ZM64.1107 15.1721V44.1467H57.8441V10.5002H63.639L64.1107 15.1721ZM76.7338 21.8206V23.4377C76.7338 25.3394 76.5691 27.024 76.2396 28.4915C75.9102 29.9439 75.4161 31.1793 74.7572 32.1975C74.1133 33.2008 73.3047 33.9644 72.3314 34.4885C71.3581 34.9976 70.2201 35.2522 68.9174 35.2522C67.7045 35.2522 66.6563 34.9677 65.7728 34.3987C64.9043 33.8147 64.1706 33.0136 63.5717 31.9954C62.9727 30.9771 62.4935 29.7867 62.1342 28.4241C61.7748 27.0614 61.4978 25.6015 61.3031 24.0442V21.5286C61.4828 19.8665 61.7448 18.3391 62.0892 16.9465C62.4336 15.539 62.9053 14.3186 63.5043 13.2854C64.1182 12.2522 64.8594 11.4586 65.7279 10.9045C66.6114 10.3355 67.6595 10.051 68.8724 10.051C70.1901 10.051 71.3357 10.2906 72.309 10.7698C73.2972 11.2489 74.1133 11.9752 74.7572 12.9485C75.4161 13.9068 75.9102 15.1272 76.2396 16.6096C76.5691 18.092 76.7338 19.829 76.7338 21.8206ZM70.4222 23.4377V21.8206C70.4222 20.6526 70.3623 19.6568 70.2426 18.8333C70.1228 18.0097 69.9281 17.3359 69.6586 16.8118C69.389 16.2877 69.0372 15.9058 68.6029 15.6663C68.1687 15.4267 67.6371 15.3069 67.0082 15.3069C66.3942 15.3069 65.8552 15.4267 65.391 15.6663C64.9418 15.9058 64.5749 16.2577 64.2904 16.7219C64.0059 17.1711 63.7888 17.7252 63.639 18.384C63.4893 19.0279 63.4069 19.7616 63.392 20.5852V24.9875C63.4219 25.9609 63.5492 26.8219 63.7738 27.5706C64.0134 28.3193 64.3952 28.9182 64.9193 29.3674C65.4434 29.8017 66.1547 30.0188 67.0531 30.0188C67.697 30.0188 68.2286 29.884 68.6478 29.6145C69.0821 29.345 69.434 28.9407 69.7035 28.4016C69.973 27.8625 70.1602 27.1812 70.265 26.3577C70.3698 25.5341 70.4222 24.5608 70.4222 23.4377ZM79.8783 23.4827V21.843C79.8783 19.9413 80.1029 18.2568 80.5521 16.7893C81.0163 15.3219 81.6752 14.094 82.5287 13.1057C83.3822 12.1025 84.4079 11.3463 85.6058 10.8372C86.8187 10.3131 88.1739 10.051 89.6713 10.051C91.1836 10.051 92.5388 10.3131 93.7367 10.8372C94.9496 11.3463 95.9828 12.1025 96.8363 13.1057C97.7048 14.094 98.3711 15.3219 98.8353 16.7893C99.2995 18.2568 99.5316 19.9413 99.5316 21.843V23.4827C99.5316 25.3694 99.2995 27.0465 98.8353 28.5139C98.3711 29.9814 97.7048 31.2167 96.8363 32.22C95.9828 33.2232 94.9571 33.9794 93.7592 34.4885C92.5612 34.9976 91.2136 35.2522 89.7162 35.2522C88.2188 35.2522 86.8636 34.9976 85.6508 34.4885C84.4528 33.9794 83.4196 33.2232 82.5511 32.22C81.6827 31.2167 81.0163 29.9814 80.5521 28.5139C80.1029 27.0465 79.8783 25.3694 79.8783 23.4827ZM86.1674 21.843V23.4827C86.1674 24.6057 86.2422 25.579 86.392 26.4026C86.5567 27.2262 86.7888 27.9075 87.0883 28.4465C87.4027 28.9856 87.7771 29.3824 88.2113 29.637C88.6455 29.8915 89.1472 30.0188 89.7162 30.0188C90.2852 30.0188 90.7943 29.8915 91.2435 29.637C91.6927 29.3824 92.0596 28.9856 92.3441 28.4465C92.6436 27.9075 92.8607 27.2262 92.9955 26.4026C93.1452 25.579 93.2201 24.6057 93.2201 23.4827V21.843C93.2201 20.7499 93.1377 19.7916 92.973 18.968C92.8083 18.1295 92.5762 17.4482 92.2767 16.9241C91.9773 16.385 91.6029 15.9807 91.1537 15.7112C90.7194 15.4267 90.2253 15.2844 89.6713 15.2844C89.1172 15.2844 88.6231 15.4267 88.1888 15.7112C87.7696 15.9807 87.4027 16.385 87.0883 16.9241C86.7888 17.4482 86.5567 18.1295 86.392 18.968C86.2422 19.7916 86.1674 20.7499 86.1674 21.843ZM109.212 28.4016L113.457 10.5002H117.411L116.445 17.7776L112.267 34.803H108.965L109.212 28.4016ZM107.999 10.5002L110.897 28.3567L110.874 34.803H107.011L101.957 10.5002H107.999ZM120.6 28.0647L123.408 10.5002H129.495L124.418 34.803H120.555L120.6 28.0647ZM117.95 10.5002L122.195 28.2668L122.487 34.803H119.185L115.007 17.8225L114.064 10.5002H117.95ZM142.454 35.2522C140.792 35.2522 139.317 34.9976 138.03 34.4885C136.757 33.9794 135.679 33.2457 134.795 32.2874C133.912 31.314 133.238 30.1386 132.774 28.761C132.31 27.3834 132.078 25.8111 132.078 24.0442V22.0452C132.078 20.0686 132.302 18.3391 132.751 16.8567C133.201 15.3593 133.837 14.1015 134.661 13.0833C135.484 12.065 136.495 11.3088 137.693 10.8147C138.906 10.3056 140.276 10.051 141.803 10.051C143.33 10.051 144.671 10.3056 145.824 10.8147C146.992 11.3088 147.957 12.0575 148.721 13.0608C149.485 14.0491 150.061 15.2769 150.451 16.7444C150.84 18.2118 151.035 19.9189 151.035 21.8655V24.7405H134.75V20.3157H144.858V19.7542C144.858 18.7659 144.753 17.9423 144.543 17.2834C144.334 16.6096 144.004 16.108 143.555 15.7786C143.106 15.4491 142.507 15.2844 141.758 15.2844C141.129 15.2844 140.598 15.4117 140.163 15.6663C139.729 15.9208 139.385 16.3176 139.13 16.8567C138.876 17.3958 138.689 18.0995 138.569 18.968C138.449 19.8215 138.389 20.8472 138.389 22.0452V24.0442C138.389 25.1672 138.486 26.1106 138.681 26.8743C138.876 27.623 139.16 28.2369 139.535 28.7161C139.924 29.1803 140.396 29.5172 140.95 29.7268C141.504 29.9215 142.148 30.0188 142.881 30.0188C143.989 30.0188 144.985 29.8241 145.869 29.4348C146.767 29.0305 147.531 28.484 148.16 27.7952L150.675 31.6135C150.241 32.1825 149.642 32.7515 148.878 33.3206C148.115 33.8896 147.201 34.3538 146.138 34.7131C145.075 35.0725 143.847 35.2522 142.454 35.2522ZM160.962 15.9133V34.803H154.673V10.5002H160.603L160.962 15.9133ZM166.69 10.3206L166.6 16.5872C166.315 16.5273 165.971 16.4823 165.567 16.4524C165.177 16.4224 164.833 16.4075 164.534 16.4075C163.83 16.4075 163.231 16.5198 162.737 16.7444C162.243 16.954 161.831 17.276 161.501 17.7102C161.187 18.1295 160.947 18.6536 160.783 19.2825C160.618 19.9114 160.521 20.6226 160.491 21.4163L159.3 20.967C159.3 19.3798 159.42 17.9273 159.66 16.6096C159.914 15.2769 160.288 14.1239 160.783 13.1506C161.277 12.1624 161.868 11.3987 162.557 10.8596C163.261 10.3206 164.054 10.051 164.938 10.051C165.237 10.051 165.552 10.081 165.881 10.1409C166.226 10.1858 166.495 10.2457 166.69 10.3206ZM176.505 10.5002V34.803H170.194V10.5002H176.505ZM169.902 4.21118C169.902 3.23787 170.209 2.43677 170.823 1.80786C171.452 1.16398 172.298 0.842041 173.361 0.842041C174.409 0.842041 175.24 1.15649 175.854 1.7854C176.468 2.41431 176.775 3.21541 176.775 4.18872C176.775 5.16203 176.468 5.97062 175.854 6.6145C175.24 7.24341 174.409 7.55786 173.361 7.55786C172.298 7.55786 171.452 7.24341 170.823 6.6145C170.209 5.97062 169.902 5.16951 169.902 4.21118ZM187.668 15.6887V34.803H181.357V10.5002H187.264L187.668 15.6887ZM186.725 21.8206L185.04 21.8655C185.01 20.0387 185.183 18.399 185.557 16.9465C185.946 15.4941 186.5 14.2587 187.219 13.2405C187.938 12.2073 188.791 11.4211 189.78 10.8821C190.768 10.328 191.884 10.051 193.126 10.051C194.055 10.051 194.908 10.2157 195.687 10.5452C196.481 10.8746 197.162 11.3987 197.731 12.1174C198.3 12.8362 198.742 13.787 199.056 14.97C199.37 16.1529 199.528 17.6129 199.528 19.3499V34.803H193.216V19.3049C193.216 18.2568 193.111 17.4482 192.902 16.8792C192.692 16.2952 192.378 15.8909 191.958 15.6663C191.554 15.4267 191.03 15.3069 190.386 15.3069C189.787 15.3069 189.256 15.4791 188.791 15.8235C188.327 16.1529 187.938 16.6096 187.623 17.1936C187.324 17.7776 187.092 18.4664 186.927 19.26C186.777 20.0536 186.71 20.9071 186.725 21.8206ZM216.912 10.5002H222.618V34.803C222.618 37.0191 222.191 38.831 221.337 40.2385C220.499 41.6611 219.323 42.7017 217.811 43.3606C216.314 44.0344 214.562 44.3713 212.555 44.3713C211.791 44.3713 210.93 44.2665 209.972 44.0569C209.029 43.8472 208.115 43.5253 207.232 43.0911C206.348 42.6718 205.622 42.1627 205.053 41.5637L207.187 37.2063C207.771 37.7903 208.535 38.2844 209.478 38.6887C210.421 39.108 211.35 39.3176 212.263 39.3176C213.147 39.3176 213.88 39.1754 214.464 38.8909C215.063 38.6213 215.512 38.1571 215.812 37.4983C216.126 36.8394 216.284 35.956 216.284 34.8479V16.1379L216.912 10.5002ZM203.346 23.5051V21.8879C203.346 19.9114 203.533 18.1819 203.908 16.6995C204.282 15.217 204.821 13.9817 205.525 12.9934C206.229 12.0051 207.09 11.2714 208.108 10.7922C209.141 10.2981 210.294 10.051 211.567 10.051C212.899 10.051 214.015 10.343 214.913 10.927C215.812 11.496 216.538 12.2971 217.092 13.3303C217.661 14.3635 218.095 15.5839 218.395 16.9915C218.709 18.399 218.949 19.9413 219.114 21.6184V23.9543C218.949 25.5416 218.679 27.024 218.305 28.4016C217.946 29.7792 217.467 30.9771 216.868 31.9954C216.269 33.0136 215.535 33.8147 214.666 34.3987C213.798 34.9677 212.75 35.2522 211.522 35.2522C210.264 35.2522 209.126 34.9976 208.108 34.4885C207.105 33.9794 206.244 33.2307 205.525 32.2424C204.821 31.2392 204.282 30.0113 203.908 28.5588C203.533 27.0914 203.346 25.4068 203.346 23.5051ZM209.658 21.8879V23.5051C209.658 24.6431 209.725 25.6239 209.86 26.4475C210.009 27.2561 210.234 27.9224 210.534 28.4465C210.833 28.9556 211.215 29.3375 211.679 29.592C212.158 29.8316 212.72 29.9514 213.364 29.9514C214.277 29.9514 215.003 29.7418 215.542 29.3225C216.096 28.8883 216.501 28.2968 216.755 27.5481C217.025 26.7844 217.175 25.9084 217.204 24.9202V20.675C217.189 19.8515 217.092 19.1103 216.912 18.4514C216.748 17.7926 216.516 17.231 216.216 16.7668C215.917 16.3027 215.527 15.9433 215.048 15.6887C214.584 15.4342 214.037 15.3069 213.409 15.3069C212.765 15.3069 212.211 15.4342 211.746 15.6887C211.282 15.9433 210.893 16.3401 210.578 16.8792C210.279 17.4032 210.047 18.0846 209.882 18.9231C209.732 19.7467 209.658 20.7349 209.658 21.8879ZM249.279 20.5403H242.563L242.54 15.7786H248.245C249.144 15.7786 249.878 15.6288 250.447 15.3293C251.031 15.0149 251.457 14.5582 251.727 13.9592C252.011 13.3453 252.154 12.5966 252.154 11.7131C252.154 10.7249 252.019 9.93123 251.749 9.33228C251.495 8.71834 251.083 8.26912 250.514 7.98462C249.96 7.70011 249.226 7.55786 248.313 7.55786H244.809V34.803H238.228V2.09985H248.313C249.945 2.09985 251.405 2.27954 252.693 2.63892C253.981 2.99829 255.066 3.54484 255.95 4.27856C256.848 5.01229 257.537 5.94067 258.016 7.06372C258.495 8.18677 258.735 9.51196 258.735 11.0393C258.735 12.387 258.465 13.6298 257.926 14.7678C257.387 15.9058 256.541 16.8417 255.388 17.5754C254.25 18.2942 252.76 18.691 250.918 18.7659L249.279 20.5403ZM249.032 34.803H240.699L243.327 29.3674H249.032C249.915 29.3674 250.619 29.1803 251.143 28.8059C251.667 28.4316 252.049 27.9299 252.288 27.301C252.543 26.6571 252.67 25.9234 252.67 25.0999C252.67 24.1715 252.558 23.3629 252.333 22.6741C252.124 21.9853 251.772 21.4612 251.278 21.1018C250.784 20.7275 250.117 20.5403 249.279 20.5403H243.619L243.663 15.7786H250.536L252.086 17.6653C253.838 17.6054 255.238 17.9423 256.286 18.676C257.335 19.3948 258.083 20.3381 258.533 21.5061C258.997 22.6591 259.229 23.887 259.229 25.1897C259.229 27.2861 258.832 29.053 258.038 30.4905C257.26 31.913 256.114 32.9911 254.602 33.7249C253.09 34.4436 251.233 34.803 249.032 34.803ZM275.491 28.9631V10.5002H281.802V34.803H275.872L275.491 28.9631ZM276.209 23.9543L277.961 23.9094C277.961 25.5266 277.804 27.0315 277.49 28.4241C277.175 29.8167 276.703 31.0221 276.075 32.0403C275.461 33.0585 274.675 33.8521 273.716 34.4211C272.773 34.9752 271.657 35.2522 270.37 35.2522C269.381 35.2522 268.468 35.0875 267.629 34.7581C266.806 34.4137 266.094 33.8821 265.495 33.1633C264.897 32.4296 264.425 31.4937 264.08 30.3557C263.751 29.2027 263.586 27.8176 263.586 26.2004V10.5002H269.898V26.2678C269.898 26.9267 269.958 27.4957 270.078 27.9749C270.197 28.439 270.362 28.8209 270.572 29.1204C270.781 29.4198 271.028 29.637 271.313 29.7717C271.597 29.8915 271.919 29.9514 272.279 29.9514C273.267 29.9514 274.046 29.6969 274.615 29.1877C275.199 28.6637 275.61 27.9524 275.85 27.054C276.09 26.1405 276.209 25.1073 276.209 23.9543ZM297.165 28.2444C297.165 27.8251 297.023 27.4508 296.739 27.1213C296.454 26.7919 296.005 26.455 295.391 26.1106C294.777 25.7512 293.961 25.3544 292.943 24.9202C291.835 24.4709 290.854 24.0068 290 23.5276C289.147 23.0484 288.421 22.5168 287.822 21.9329C287.238 21.3489 286.796 20.6825 286.496 19.9338C286.197 19.1851 286.047 18.3316 286.047 17.3733C286.047 16.3401 286.234 15.3892 286.609 14.5208C286.998 13.6373 287.552 12.8661 288.271 12.2073C288.99 11.5334 289.866 11.0094 290.899 10.635C291.947 10.2457 293.122 10.051 294.425 10.051C296.252 10.051 297.817 10.373 299.12 11.0168C300.437 11.6458 301.448 12.5292 302.152 13.6672C302.856 14.8053 303.207 16.1305 303.207 17.6428H296.918C296.918 17.1038 296.836 16.6246 296.671 16.2053C296.507 15.7711 296.237 15.4342 295.863 15.1946C295.503 14.955 295.017 14.8352 294.403 14.8352C293.953 14.8352 293.549 14.9325 293.19 15.1272C292.845 15.3219 292.568 15.5839 292.359 15.9133C292.164 16.2278 292.067 16.6021 292.067 17.0364C292.067 17.3658 292.134 17.6578 292.269 17.9124C292.419 18.1669 292.651 18.414 292.965 18.6536C293.28 18.8931 293.699 19.1477 294.223 19.4172C294.762 19.6718 295.421 19.9563 296.2 20.2708C297.817 20.8697 299.142 21.5136 300.175 22.2024C301.223 22.8912 302.002 23.6998 302.511 24.6282C303.02 25.5416 303.275 26.6721 303.275 28.0198C303.275 29.0979 303.065 30.0787 302.646 30.9622C302.242 31.8456 301.65 32.6093 300.871 33.2532C300.093 33.8971 299.157 34.3912 298.064 34.7356C296.986 35.08 295.78 35.2522 294.448 35.2522C292.486 35.2522 290.831 34.8629 289.484 34.0842C288.136 33.3056 287.118 32.3098 286.429 31.0969C285.74 29.8691 285.396 28.5963 285.396 27.2786H291.37C291.4 28.0872 291.55 28.7236 291.82 29.1877C292.104 29.637 292.486 29.9514 292.965 30.1311C293.444 30.3108 293.976 30.4006 294.56 30.4006C295.144 30.4006 295.623 30.3258 295.997 30.176C296.387 30.0113 296.679 29.7642 296.873 29.4348C297.068 29.0904 297.165 28.6936 297.165 28.2444ZM313.876 10.5002V34.803H307.565V10.5002H313.876ZM307.273 4.21118C307.273 3.23787 307.58 2.43677 308.194 1.80786C308.823 1.16398 309.669 0.842041 310.732 0.842041C311.78 0.842041 312.611 1.15649 313.225 1.7854C313.839 2.41431 314.146 3.21541 314.146 4.18872C314.146 5.16203 313.839 5.97062 313.225 6.6145C312.611 7.24341 311.78 7.55786 310.732 7.55786C309.669 7.55786 308.823 7.24341 308.194 6.6145C307.58 5.97062 307.273 5.16951 307.273 4.21118ZM325.039 15.6887V34.803H318.728V10.5002H324.635L325.039 15.6887ZM324.096 21.8206L322.411 21.8655C322.382 20.0387 322.554 18.399 322.928 16.9465C323.317 15.4941 323.871 14.2587 324.59 13.2405C325.309 12.2073 326.162 11.4211 327.151 10.8821C328.139 10.328 329.255 10.051 330.497 10.051C331.426 10.051 332.279 10.2157 333.058 10.5452C333.852 10.8746 334.533 11.3987 335.102 12.1174C335.671 12.8362 336.113 13.787 336.427 14.97C336.742 16.1529 336.899 17.6129 336.899 19.3499V34.803H330.587V19.3049C330.587 18.2568 330.482 17.4482 330.273 16.8792C330.063 16.2952 329.749 15.8909 329.329 15.6663C328.925 15.4267 328.401 15.3069 327.757 15.3069C327.158 15.3069 326.627 15.4791 326.162 15.8235C325.698 16.1529 325.309 16.6096 324.995 17.1936C324.695 17.7776 324.463 18.4664 324.298 19.26C324.148 20.0536 324.081 20.9071 324.096 21.8206ZM351.296 35.2522C349.634 35.2522 348.159 34.9976 346.871 34.4885C345.599 33.9794 344.521 33.2457 343.637 32.2874C342.754 31.314 342.08 30.1386 341.616 28.761C341.151 27.3834 340.919 25.8111 340.919 24.0442V22.0452C340.919 20.0686 341.144 18.3391 341.593 16.8567C342.042 15.3593 342.679 14.1015 343.502 13.0833C344.326 12.065 345.337 11.3088 346.535 10.8147C347.747 10.3056 349.118 10.051 350.645 10.051C352.172 10.051 353.512 10.3056 354.665 10.8147C355.833 11.3088 356.799 12.0575 357.563 13.0608C358.327 14.0491 358.903 15.2769 359.292 16.7444C359.682 18.2118 359.876 19.9189 359.876 21.8655V24.7405H343.592V20.3157H353.7V19.7542C353.7 18.7659 353.595 17.9423 353.385 17.2834C353.175 16.6096 352.846 16.108 352.397 15.7786C351.948 15.4491 351.349 15.2844 350.6 15.2844C349.971 15.2844 349.439 15.4117 349.005 15.6663C348.571 15.9208 348.227 16.3176 347.972 16.8567C347.717 17.3958 347.53 18.0995 347.411 18.968C347.291 19.8215 347.231 20.8472 347.231 22.0452V24.0442C347.231 25.1672 347.328 26.1106 347.523 26.8743C347.717 27.623 348.002 28.2369 348.376 28.7161C348.766 29.1803 349.237 29.5172 349.791 29.7268C350.345 29.9215 350.989 30.0188 351.723 30.0188C352.831 30.0188 353.827 29.8241 354.71 29.4348C355.609 29.0305 356.372 28.484 357.001 27.7952L359.517 31.6135C359.083 32.1825 358.484 32.7515 357.72 33.3206C356.956 33.8896 356.043 34.3538 354.98 34.7131C353.917 35.0725 352.689 35.2522 351.296 35.2522ZM374.296 28.2444C374.296 27.8251 374.154 27.4508 373.87 27.1213C373.585 26.7919 373.136 26.455 372.522 26.1106C371.908 25.7512 371.092 25.3544 370.074 24.9202C368.966 24.4709 367.985 24.0068 367.131 23.5276C366.278 23.0484 365.551 22.5168 364.953 21.9329C364.369 21.3489 363.927 20.6825 363.627 19.9338C363.328 19.1851 363.178 18.3316 363.178 17.3733C363.178 16.3401 363.365 15.3892 363.74 14.5208C364.129 13.6373 364.683 12.8661 365.402 12.2073C366.12 11.5334 366.996 11.0094 368.03 10.635C369.078 10.2457 370.253 10.051 371.556 10.051C373.383 10.051 374.948 10.373 376.25 11.0168C377.568 11.6458 378.579 12.5292 379.283 13.6672C379.986 14.8053 380.338 16.1305 380.338 17.6428H374.049C374.049 17.1038 373.967 16.6246 373.802 16.2053C373.637 15.7711 373.368 15.4342 372.994 15.1946C372.634 14.955 372.148 14.8352 371.534 14.8352C371.084 14.8352 370.68 14.9325 370.321 15.1272C369.976 15.3219 369.699 15.5839 369.49 15.9133C369.295 16.2278 369.198 16.6021 369.198 17.0364C369.198 17.3658 369.265 17.6578 369.4 17.9124C369.55 18.1669 369.782 18.414 370.096 18.6536C370.411 18.8931 370.83 19.1477 371.354 19.4172C371.893 19.6718 372.552 19.9563 373.33 20.2708C374.948 20.8697 376.273 21.5136 377.306 22.2024C378.354 22.8912 379.133 23.6998 379.642 24.6282C380.151 25.5416 380.406 26.6721 380.406 28.0198C380.406 29.0979 380.196 30.0787 379.777 30.9622C379.372 31.8456 378.781 32.6093 378.002 33.2532C377.224 33.8971 376.288 34.3912 375.195 34.7356C374.117 35.08 372.911 35.2522 371.578 35.2522C369.617 35.2522 367.962 34.8629 366.615 34.0842C365.267 33.3056 364.249 32.3098 363.56 31.0969C362.871 29.8691 362.527 28.5963 362.527 27.2786H368.501C368.531 28.0872 368.681 28.7236 368.951 29.1877C369.235 29.637 369.617 29.9514 370.096 30.1311C370.575 30.3108 371.107 30.4006 371.691 30.4006C372.275 30.4006 372.754 30.3258 373.128 30.176C373.518 30.0113 373.81 29.7642 374.004 29.4348C374.199 29.0904 374.296 28.6936 374.296 28.2444ZM395.185 28.2444C395.185 27.8251 395.043 27.4508 394.758 27.1213C394.474 26.7919 394.024 26.455 393.411 26.1106C392.797 25.7512 391.981 25.3544 390.962 24.9202C389.854 24.4709 388.873 24.0068 388.02 23.5276C387.166 23.0484 386.44 22.5168 385.841 21.9329C385.257 21.3489 384.815 20.6825 384.516 19.9338C384.217 19.1851 384.067 18.3316 384.067 17.3733C384.067 16.3401 384.254 15.3892 384.628 14.5208C385.018 13.6373 385.572 12.8661 386.29 12.2073C387.009 11.5334 387.885 11.0094 388.918 10.635C389.967 10.2457 391.142 10.051 392.445 10.051C394.272 10.051 395.836 10.373 397.139 11.0168C398.457 11.6458 399.467 12.5292 400.171 13.6672C400.875 14.8053 401.227 16.1305 401.227 17.6428H394.938C394.938 17.1038 394.856 16.6246 394.691 16.2053C394.526 15.7711 394.257 15.4342 393.882 15.1946C393.523 14.955 393.036 14.8352 392.422 14.8352C391.973 14.8352 391.569 14.9325 391.209 15.1272C390.865 15.3219 390.588 15.5839 390.378 15.9133C390.184 16.2278 390.086 16.6021 390.086 17.0364C390.086 17.3658 390.154 17.6578 390.288 17.9124C390.438 18.1669 390.67 18.414 390.985 18.6536C391.299 18.8931 391.718 19.1477 392.243 19.4172C392.782 19.6718 393.44 19.9563 394.219 20.2708C395.836 20.8697 397.161 21.5136 398.195 22.2024C399.243 22.8912 400.022 23.6998 400.531 24.6282C401.04 25.5416 401.294 26.6721 401.294 28.0198C401.294 29.0979 401.085 30.0787 400.665 30.9622C400.261 31.8456 399.67 32.6093 398.891 33.2532C398.112 33.8971 397.176 34.3912 396.083 34.7356C395.005 35.08 393.8 35.2522 392.467 35.2522C390.506 35.2522 388.851 34.8629 387.503 34.0842C386.156 33.3056 385.137 32.3098 384.449 31.0969C383.76 29.8691 383.415 28.5963 383.415 27.2786H389.39C389.42 28.0872 389.57 28.7236 389.839 29.1877C390.124 29.637 390.506 29.9514 390.985 30.1311C391.464 30.3108 391.995 30.4006 392.579 30.4006C393.163 30.4006 393.643 30.3258 394.017 30.176C394.406 30.0113 394.698 29.7642 394.893 29.4348C395.088 29.0904 395.185 28.6936 395.185 28.2444ZM415.085 35.2522C413.423 35.2522 411.948 34.9976 410.661 34.4885C409.388 33.9794 408.31 33.2457 407.426 32.2874C406.543 31.314 405.869 30.1386 405.405 28.761C404.94 27.3834 404.708 25.8111 404.708 24.0442V22.0452C404.708 20.0686 404.933 18.3391 405.382 16.8567C405.831 15.3593 406.468 14.1015 407.291 13.0833C408.115 12.065 409.126 11.3088 410.324 10.8147C411.536 10.3056 412.907 10.051 414.434 10.051C415.961 10.051 417.301 10.3056 418.454 10.8147C419.622 11.3088 420.588 12.0575 421.352 13.0608C422.116 14.0491 422.692 15.2769 423.081 16.7444C423.471 18.2118 423.665 19.9189 423.665 21.8655V24.7405H407.381V20.3157H417.489V19.7542C417.489 18.7659 417.384 17.9423 417.174 17.2834C416.965 16.6096 416.635 16.108 416.186 15.7786C415.737 15.4491 415.138 15.2844 414.389 15.2844C413.76 15.2844 413.229 15.4117 412.794 15.6663C412.36 15.9208 412.016 16.3176 411.761 16.8567C411.507 17.3958 411.319 18.0995 411.2 18.968C411.08 19.8215 411.02 20.8472 411.02 22.0452V24.0442C411.02 25.1672 411.117 26.1106 411.312 26.8743C411.507 27.623 411.791 28.2369 412.165 28.7161C412.555 29.1803 413.026 29.5172 413.58 29.7268C414.134 29.9215 414.778 30.0188 415.512 30.0188C416.62 30.0188 417.616 29.8241 418.499 29.4348C419.398 29.0305 420.161 28.484 420.79 27.7952L423.306 31.6135C422.872 32.1825 422.273 32.7515 421.509 33.3206C420.745 33.8896 419.832 34.3538 418.769 34.7131C417.706 35.0725 416.478 35.2522 415.085 35.2522ZM438.085 28.2444C438.085 27.8251 437.943 27.4508 437.659 27.1213C437.374 26.7919 436.925 26.455 436.311 26.1106C435.697 25.7512 434.881 25.3544 433.863 24.9202C432.755 24.4709 431.774 24.0068 430.92 23.5276C430.067 23.0484 429.341 22.5168 428.742 21.9329C428.158 21.3489 427.716 20.6825 427.416 19.9338C427.117 19.1851 426.967 18.3316 426.967 17.3733C426.967 16.3401 427.154 15.3892 427.529 14.5208C427.918 13.6373 428.472 12.8661 429.191 12.2073C429.91 11.5334 430.786 11.0094 431.819 10.635C432.867 10.2457 434.042 10.051 435.345 10.051C437.172 10.051 438.737 10.373 440.039 11.0168C441.357 11.6458 442.368 12.5292 443.072 13.6672C443.775 14.8053 444.127 16.1305 444.127 17.6428H437.838C437.838 17.1038 437.756 16.6246 437.591 16.2053C437.426 15.7711 437.157 15.4342 436.783 15.1946C436.423 14.955 435.937 14.8352 435.323 14.8352C434.873 14.8352 434.469 14.9325 434.11 15.1272C433.765 15.3219 433.488 15.5839 433.279 15.9133C433.084 16.2278 432.987 16.6021 432.987 17.0364C432.987 17.3658 433.054 17.6578 433.189 17.9124C433.339 18.1669 433.571 18.414 433.885 18.6536C434.2 18.8931 434.619 19.1477 435.143 19.4172C435.682 19.6718 436.341 19.9563 437.12 20.2708C438.737 20.8697 440.062 21.5136 441.095 22.2024C442.143 22.8912 442.922 23.6998 443.431 24.6282C443.94 25.5416 444.195 26.6721 444.195 28.0198C444.195 29.0979 443.985 30.0787 443.566 30.9622C443.161 31.8456 442.57 32.6093 441.791 33.2532C441.013 33.8971 440.077 34.3912 438.984 34.7356C437.906 35.08 436.7 35.2522 435.368 35.2522C433.406 35.2522 431.751 34.8629 430.404 34.0842C429.056 33.3056 428.038 32.3098 427.349 31.0969C426.66 29.8691 426.316 28.5963 426.316 27.2786H432.29C432.32 28.0872 432.47 28.7236 432.74 29.1877C433.024 29.637 433.406 29.9514 433.885 30.1311C434.364 30.3108 434.896 30.4006 435.48 30.4006C436.064 30.4006 436.543 30.3258 436.917 30.176C437.307 30.0113 437.599 29.7642 437.793 29.4348C437.988 29.0904 438.085 28.6936 438.085 28.2444ZM464.499 28.4016L468.745 10.5002H472.698L471.732 17.7776L467.554 34.803H464.252L464.499 28.4016ZM463.286 10.5002L466.184 28.3567L466.161 34.803H462.298L457.245 10.5002H463.286ZM475.887 28.0647L478.695 10.5002H484.782L479.705 34.803H475.842L475.887 28.0647ZM473.237 10.5002L477.482 28.2668L477.774 34.803H474.472L470.294 17.8225L469.351 10.5002H473.237ZM494.552 10.5002V34.803H488.241V10.5002H494.552ZM487.949 4.21118C487.949 3.23787 488.256 2.43677 488.87 1.80786C489.498 1.16398 490.344 0.842041 491.408 0.842041C492.456 0.842041 493.287 1.15649 493.901 1.7854C494.515 2.41431 494.822 3.21541 494.822 4.18872C494.822 5.16203 494.515 5.97062 493.901 6.6145C493.287 7.24341 492.456 7.55786 491.408 7.55786C490.344 7.55786 489.498 7.24341 488.87 6.6145C488.256 5.97062 487.949 5.16951 487.949 4.21118ZM510.14 10.5002V15.2395H497.742V10.5002H510.14ZM500.594 4.50317H506.861V27.3909C506.861 28.0647 506.928 28.5813 507.063 28.9407C507.198 29.3 507.4 29.5546 507.669 29.7043C507.954 29.8391 508.321 29.9065 508.77 29.9065C509.099 29.9065 509.399 29.8915 509.668 29.8616C509.938 29.8167 510.14 29.7717 510.275 29.7268V34.6458C509.781 34.8404 509.257 34.9902 508.703 35.095C508.163 35.1998 507.52 35.2522 506.771 35.2522C505.528 35.2522 504.442 35.0126 503.514 34.5334C502.586 34.0543 501.867 33.2906 501.358 32.2424C500.849 31.1793 500.594 29.7867 500.594 28.0647V4.50317ZM519.776 0.302979V34.803H513.487V0.302979H519.776ZM518.877 21.8206L517.17 21.8655C517.17 20.1584 517.342 18.5862 517.687 17.1487C518.046 15.7112 518.563 14.4609 519.237 13.3977C519.911 12.3346 520.727 11.511 521.685 10.927C522.658 10.343 523.729 10.051 524.897 10.051C525.9 10.051 526.814 10.2232 527.637 10.5676C528.461 10.912 529.172 11.4511 529.771 12.1848C530.385 12.9185 530.856 13.8918 531.186 15.1047C531.515 16.3027 531.68 17.7551 531.68 19.4622V34.803H525.369V19.4172C525.369 18.3691 525.264 17.5455 525.054 16.9465C524.844 16.3476 524.53 15.9283 524.111 15.6887C523.691 15.4342 523.167 15.3069 522.538 15.3069C521.865 15.3069 521.288 15.4791 520.809 15.8235C520.345 16.1529 519.97 16.6096 519.686 17.1936C519.401 17.7776 519.192 18.4664 519.057 19.26C518.937 20.0536 518.877 20.9071 518.877 21.8206ZM20.1547 85.3674V90.803H5.93689V85.3674H20.1547ZM7.98083 58.0999V90.803H1.39978V58.0999H7.98083ZM18.2455 71.3518V76.6301H5.93689V71.3518H18.2455ZM20.1097 58.0999V63.5579H5.93689V58.0999H20.1097ZM29.0492 66.5002L32.059 72.677L34.642 66.5002H41.3129L35.0912 78.3821L41.5599 90.803H34.8441L31.767 84.4016L28.8246 90.803H22.0863L28.2631 78.4495L22.3109 66.5002H29.0492ZM52.8129 86.0188C53.3969 86.0188 53.8985 85.899 54.3177 85.6594C54.752 85.4198 55.0814 85.0305 55.306 84.4915C55.5306 83.9524 55.6504 83.2561 55.6654 82.4026H61.5726C61.5726 84.2294 61.1833 85.8092 60.4047 87.1418C59.641 88.4596 58.6078 89.4778 57.3051 90.1965C56.0173 90.9003 54.5573 91.2522 52.9252 91.2522C51.293 91.2522 49.8705 90.9902 48.6576 90.4661C47.4447 89.942 46.4414 89.1783 45.6478 88.175C44.8692 87.1718 44.2777 85.9514 43.8734 84.5139C43.4841 83.0614 43.2894 81.3993 43.2894 79.5276V77.7532C43.2894 75.9114 43.4841 74.2642 43.8734 72.8118C44.2777 71.3593 44.8692 70.1314 45.6478 69.1282C46.4414 68.1249 47.4372 67.3612 48.6351 66.8372C49.848 66.3131 51.2705 66.051 52.9027 66.051C54.6547 66.051 56.1745 66.4179 57.4623 67.1516C58.75 67.8704 59.7533 68.9335 60.472 70.3411C61.2058 71.7486 61.5726 73.4856 61.5726 75.552H55.6654C55.6504 74.6236 55.5381 73.8525 55.3285 73.2385C55.1338 72.6096 54.8269 72.1305 54.4076 71.801C54.0033 71.4566 53.4642 71.2844 52.7904 71.2844C52.0866 71.2844 51.5176 71.4342 51.0834 71.7336C50.6641 72.0181 50.3422 72.4374 50.1176 72.9915C49.9079 73.5305 49.7657 74.2043 49.6908 75.0129C49.6159 75.8215 49.5785 76.7349 49.5785 77.7532V79.5276C49.5785 80.6207 49.6084 81.5715 49.6683 82.3801C49.7432 83.1737 49.8855 83.8476 50.0951 84.4016C50.3197 84.9407 50.6416 85.345 51.0609 85.6145C51.4952 85.884 52.0791 86.0188 52.8129 86.0188ZM74.9818 91.2522C73.3197 91.2522 71.8448 90.9976 70.557 90.4885C69.2842 89.9794 68.2061 89.2457 67.3226 88.2874C66.4392 87.314 65.7653 86.1386 65.3011 84.761C64.837 83.3834 64.6049 81.8111 64.6049 80.0442V78.0452C64.6049 76.0686 64.8295 74.3391 65.2787 72.8567C65.7279 71.3593 66.3643 70.1015 67.1879 69.0833C68.0114 68.065 69.0222 67.3088 70.2201 66.8147C71.433 66.3056 72.8031 66.051 74.3304 66.051C75.8578 66.051 77.198 66.3056 78.351 66.8147C79.5189 67.3088 80.4847 68.0575 81.2484 69.0608C82.0121 70.0491 82.5886 71.2769 82.9779 72.7444C83.3672 74.2118 83.5619 75.9189 83.5619 77.8655V80.7405H67.2777V76.3157H77.3851V75.7542C77.3851 74.7659 77.2803 73.9423 77.0707 73.2834C76.861 72.6096 76.5316 72.108 76.0824 71.7786C75.6332 71.4491 75.0342 71.2844 74.2855 71.2844C73.6566 71.2844 73.125 71.4117 72.6908 71.6663C72.2566 71.9208 71.9122 72.3176 71.6576 72.8567C71.403 73.3958 71.2159 74.0995 71.0961 74.968C70.9763 75.8215 70.9164 76.8472 70.9164 78.0452V80.0442C70.9164 81.1672 71.0137 82.1106 71.2084 82.8743C71.403 83.623 71.6875 84.2369 72.0619 84.7161C72.4512 85.1803 72.9229 85.5172 73.4769 85.7268C74.031 85.9215 74.6748 86.0188 75.4086 86.0188C76.5166 86.0188 77.5124 85.8241 78.3959 85.4348C79.2943 85.0305 80.058 84.484 80.6869 83.7952L83.2025 87.6135C82.7683 88.1825 82.1693 88.7515 81.4056 89.3206C80.642 89.8896 79.7286 90.3538 78.6654 90.7131C77.6023 91.0725 76.3744 91.2522 74.9818 91.2522ZM93.4896 71.1721V100.147H87.223V66.5002H93.0179L93.4896 71.1721ZM106.113 77.8206V79.4377C106.113 81.3394 105.948 83.024 105.619 84.4915C105.289 85.9439 104.795 87.1793 104.136 88.1975C103.492 89.2008 102.684 89.9644 101.71 90.4885C100.737 90.9976 99.599 91.2522 98.2963 91.2522C97.0834 91.2522 96.0352 90.9677 95.1517 90.3987C94.2832 89.8147 93.5495 89.0136 92.9506 87.9954C92.3516 86.9771 91.8724 85.7867 91.5131 84.4241C91.1537 83.0614 90.8767 81.6015 90.682 80.0442V77.5286C90.8617 75.8665 91.1237 74.3391 91.4681 72.9465C91.8125 71.539 92.2842 70.3186 92.8832 69.2854C93.4971 68.2522 94.2383 67.4586 95.1068 66.9045C95.9903 66.3355 97.0385 66.051 98.2513 66.051C99.5691 66.051 100.715 66.2906 101.688 66.7698C102.676 67.2489 103.492 67.9752 104.136 68.9485C104.795 69.9068 105.289 71.1272 105.619 72.6096C105.948 74.092 106.113 75.829 106.113 77.8206ZM99.8011 79.4377V77.8206C99.8011 76.6526 99.7413 75.6568 99.6215 74.8333C99.5017 74.0097 99.307 73.3359 99.0375 72.8118C98.7679 72.2877 98.4161 71.9058 97.9818 71.6663C97.5476 71.4267 97.016 71.3069 96.3871 71.3069C95.7732 71.3069 95.2341 71.4267 94.7699 71.6663C94.3207 71.9058 93.9538 72.2577 93.6693 72.7219C93.3848 73.1711 93.1677 73.7252 93.0179 74.384C92.8682 75.0279 92.7858 75.7616 92.7709 76.5852V80.9875C92.8008 81.9609 92.9281 82.8219 93.1527 83.5706C93.3923 84.3193 93.7741 84.9182 94.2982 85.3674C94.8223 85.8017 95.5336 86.0188 96.432 86.0188C97.0759 86.0188 97.6075 85.884 98.0267 85.6145C98.461 85.345 98.8129 84.9407 99.0824 84.4016C99.3519 83.8625 99.5391 83.1812 99.6439 82.3577C99.7487 81.5341 99.8011 80.5608 99.8011 79.4377ZM120.578 66.5002V71.2395H108.179V66.5002H120.578ZM111.032 60.5032H117.298V83.3909C117.298 84.0647 117.366 84.5813 117.5 84.9407C117.635 85.3 117.837 85.5546 118.107 85.7043C118.391 85.8391 118.758 85.9065 119.207 85.9065C119.537 85.9065 119.836 85.8915 120.106 85.8616C120.375 85.8167 120.578 85.7717 120.712 85.7268V90.6458C120.218 90.8404 119.694 90.9902 119.14 91.095C118.601 91.1998 117.957 91.2522 117.208 91.2522C115.966 91.2522 114.88 91.0126 113.952 90.5334C113.023 90.0543 112.304 89.2906 111.795 88.2424C111.286 87.1793 111.032 85.7867 111.032 84.0647V60.5032ZM130.685 66.5002V90.803H124.373V66.5002H130.685ZM124.081 60.2112C124.081 59.2379 124.388 58.4368 125.002 57.8079C125.631 57.164 126.477 56.842 127.54 56.842C128.589 56.842 129.42 57.1565 130.034 57.7854C130.648 58.4143 130.954 59.2154 130.954 60.1887C130.954 61.162 130.648 61.9706 130.034 62.6145C129.42 63.2434 128.589 63.5579 127.54 63.5579C126.477 63.5579 125.631 63.2434 125.002 62.6145C124.388 61.9706 124.081 61.1695 124.081 60.2112ZM134.953 79.4827V77.843C134.953 75.9413 135.177 74.2568 135.626 72.7893C136.091 71.3219 136.749 70.094 137.603 69.1057C138.456 68.1025 139.482 67.3463 140.68 66.8372C141.893 66.3131 143.248 66.051 144.745 66.051C146.258 66.051 147.613 66.3131 148.811 66.8372C150.024 67.3463 151.057 68.1025 151.911 69.1057C152.779 70.094 153.445 71.3219 153.91 72.7893C154.374 74.2568 154.606 75.9413 154.606 77.843V79.4827C154.606 81.3694 154.374 83.0465 153.91 84.5139C153.445 85.9814 152.779 87.2167 151.911 88.22C151.057 89.2232 150.031 89.9794 148.833 90.4885C147.635 90.9976 146.288 91.2522 144.79 91.2522C143.293 91.2522 141.938 90.9976 140.725 90.4885C139.527 89.9794 138.494 89.2232 137.625 88.22C136.757 87.2167 136.091 85.9814 135.626 84.5139C135.177 83.0465 134.953 81.3694 134.953 79.4827ZM141.242 77.843V79.4827C141.242 80.6057 141.316 81.579 141.466 82.4026C141.631 83.2262 141.863 83.9075 142.162 84.4465C142.477 84.9856 142.851 85.3824 143.286 85.637C143.72 85.8915 144.221 86.0188 144.79 86.0188C145.359 86.0188 145.869 85.8915 146.318 85.637C146.767 85.3824 147.134 84.9856 147.418 84.4465C147.718 83.9075 147.935 83.2262 148.07 82.4026C148.219 81.579 148.294 80.6057 148.294 79.4827V77.843C148.294 76.7499 148.212 75.7916 148.047 74.968C147.883 74.1295 147.65 73.4482 147.351 72.9241C147.051 72.385 146.677 71.9807 146.228 71.7112C145.794 71.4267 145.3 71.2844 144.745 71.2844C144.191 71.2844 143.697 71.4267 143.263 71.7112C142.844 71.9807 142.477 72.385 142.162 72.9241C141.863 73.4482 141.631 74.1295 141.466 74.968C141.316 75.7916 141.242 76.7499 141.242 77.843ZM164.758 71.6887V90.803H158.447V66.5002H164.354L164.758 71.6887ZM163.815 77.8206L162.13 77.8655C162.1 76.0387 162.273 74.399 162.647 72.9465C163.036 71.4941 163.59 70.2587 164.309 69.2405C165.028 68.2073 165.881 67.4211 166.87 66.8821C167.858 66.328 168.973 66.051 170.216 66.051C171.145 66.051 171.998 66.2157 172.777 66.5452C173.57 66.8746 174.252 67.3987 174.821 68.1174C175.39 68.8362 175.831 69.787 176.146 70.97C176.46 72.1529 176.618 73.6129 176.618 75.3499V90.803H170.306V75.3049C170.306 74.2568 170.201 73.4482 169.992 72.8792C169.782 72.2952 169.467 71.8909 169.048 71.6663C168.644 71.4267 168.12 71.3069 167.476 71.3069C166.877 71.3069 166.345 71.4791 165.881 71.8235C165.417 72.1529 165.028 72.6096 164.713 73.1936C164.414 73.7776 164.182 74.4664 164.017 75.26C163.867 76.0536 163.8 76.9071 163.815 77.8206ZM191.936 85.2102V73.9797C191.936 73.246 191.846 72.662 191.666 72.2278C191.502 71.7935 191.247 71.4791 190.903 71.2844C190.573 71.0748 190.169 70.97 189.69 70.97C189.151 70.97 188.702 71.0823 188.342 71.3069C187.983 71.5315 187.713 71.8534 187.534 72.2727C187.369 72.692 187.286 73.1936 187.286 73.7776H180.975C180.975 72.7294 181.177 71.7411 181.581 70.8127C181.986 69.8694 182.577 69.0458 183.356 68.342C184.149 67.6233 185.093 67.0618 186.186 66.6575C187.279 66.2532 188.507 66.051 189.87 66.051C191.487 66.051 192.924 66.328 194.182 66.8821C195.44 67.4211 196.436 68.2821 197.169 69.4651C197.903 70.648 198.27 72.1829 198.27 74.0696V84.8958C198.27 86.2584 198.337 87.3665 198.472 88.22C198.622 89.0735 198.839 89.8072 199.123 90.4211V90.803H192.789C192.505 90.1292 192.288 89.2906 192.138 88.2874C192.003 87.2691 191.936 86.2434 191.936 85.2102ZM192.7 75.9563L192.722 79.7297H190.409C189.81 79.7297 189.286 79.8271 188.836 80.0217C188.402 80.2164 188.035 80.4934 187.736 80.8528C187.436 81.1972 187.212 81.6015 187.062 82.0657C186.927 82.5299 186.86 83.024 186.86 83.5481C186.86 84.1321 186.942 84.6262 187.107 85.0305C187.272 85.4348 187.519 85.7418 187.848 85.9514C188.177 86.1611 188.567 86.2659 189.016 86.2659C189.705 86.2659 190.304 86.1236 190.813 85.8391C191.322 85.5546 191.696 85.2102 191.936 84.8059C192.19 84.4016 192.273 84.0273 192.183 83.6829L193.62 86.1311C193.441 86.6851 193.194 87.2616 192.879 87.8606C192.58 88.4596 192.198 89.0136 191.734 89.5227C191.27 90.0318 190.693 90.4511 190.004 90.7805C189.33 91.095 188.529 91.2522 187.601 91.2522C186.298 91.2522 185.108 90.9527 184.03 90.3538C182.952 89.7548 182.098 88.9163 181.469 87.8381C180.855 86.76 180.548 85.4797 180.548 83.9973C180.548 82.7694 180.743 81.6614 181.132 80.6731C181.536 79.6698 182.135 78.8238 182.929 78.135C183.723 77.4312 184.726 76.8922 185.939 76.5178C187.152 76.1435 188.574 75.9563 190.206 75.9563H192.7ZM209.523 56.303V90.803H203.211V56.303H209.523ZM241.013 79.9094H247.549C247.459 82.3652 246.965 84.439 246.067 86.1311C245.168 87.8082 243.888 89.081 242.226 89.9495C240.579 90.818 238.587 91.2522 236.251 91.2522C234.439 91.2522 232.83 90.9527 231.422 90.3538C230.015 89.7398 228.817 88.8414 227.828 87.6584C226.84 86.4755 226.092 85.0155 225.582 83.2786C225.088 81.5266 224.841 79.5126 224.841 77.2366V71.6887C224.841 69.4127 225.103 67.3987 225.627 65.6467C226.166 63.8948 226.93 62.4273 227.918 61.2444C228.922 60.0465 230.127 59.148 231.535 58.5491C232.957 57.9351 234.559 57.6282 236.341 57.6282C238.722 57.6282 240.714 58.0774 242.316 58.9758C243.918 59.8743 245.153 61.1845 246.022 62.9065C246.905 64.6135 247.437 66.7024 247.617 69.1731H241.036C241.006 67.6158 240.833 66.3954 240.519 65.512C240.219 64.6135 239.74 63.9846 239.081 63.6252C238.423 63.2509 237.509 63.0637 236.341 63.0637C235.473 63.0637 234.724 63.2209 234.095 63.5354C233.466 63.8349 232.95 64.3215 232.545 64.9954C232.141 65.6692 231.842 66.5527 231.647 67.6458C231.467 68.7389 231.377 70.0715 231.377 71.6438V77.2366C231.377 78.7789 231.46 80.0966 231.624 81.1897C231.789 82.2678 232.051 83.1513 232.411 83.8401C232.77 84.5289 233.257 85.0305 233.87 85.345C234.499 85.6594 235.293 85.8167 236.251 85.8167C237.359 85.8167 238.25 85.6519 238.924 85.3225C239.613 84.9931 240.122 84.4016 240.452 83.5481C240.781 82.6946 240.968 81.4817 241.013 79.9094ZM250.626 79.4827V77.843C250.626 75.9413 250.851 74.2568 251.3 72.7893C251.764 71.3219 252.423 70.094 253.277 69.1057C254.13 68.1025 255.156 67.3463 256.354 66.8372C257.567 66.3131 258.922 66.051 260.419 66.051C261.932 66.051 263.287 66.3131 264.485 66.8372C265.698 67.3463 266.731 68.1025 267.584 69.1057C268.453 70.094 269.119 71.3219 269.583 72.7893C270.048 74.2568 270.28 75.9413 270.28 77.843V79.4827C270.28 81.3694 270.048 83.0465 269.583 84.5139C269.119 85.9814 268.453 87.2167 267.584 88.22C266.731 89.2232 265.705 89.9794 264.507 90.4885C263.309 90.9976 261.962 91.2522 260.464 91.2522C258.967 91.2522 257.612 90.9976 256.399 90.4885C255.201 89.9794 254.168 89.2232 253.299 88.22C252.431 87.2167 251.764 85.9814 251.3 84.5139C250.851 83.0465 250.626 81.3694 250.626 79.4827ZM256.915 77.843V79.4827C256.915 80.6057 256.99 81.579 257.14 82.4026C257.305 83.2262 257.537 83.9075 257.836 84.4465C258.151 84.9856 258.525 85.3824 258.959 85.637C259.394 85.8915 259.895 86.0188 260.464 86.0188C261.033 86.0188 261.542 85.8915 261.992 85.637C262.441 85.3824 262.808 84.9856 263.092 84.4465C263.392 83.9075 263.609 83.2262 263.744 82.4026C263.893 81.579 263.968 80.6057 263.968 79.4827V77.843C263.968 76.7499 263.886 75.7916 263.721 74.968C263.556 74.1295 263.324 73.4482 263.025 72.9241C262.725 72.385 262.351 71.9807 261.902 71.7112C261.467 71.4267 260.973 71.2844 260.419 71.2844C259.865 71.2844 259.371 71.4267 258.937 71.7112C258.518 71.9807 258.151 72.385 257.836 72.9241C257.537 73.4482 257.305 74.1295 257.14 74.968C256.99 75.7916 256.915 76.7499 256.915 77.843ZM286.025 85.4348V56.303H292.336V90.803L286.631 90.8254L286.025 85.4348ZM273.424 79.5051V77.8879C273.424 75.9114 273.589 74.1819 273.918 72.6995C274.263 71.217 274.772 69.9817 275.446 68.9934C276.12 68.0051 276.943 67.2714 277.916 66.7922C278.905 66.2981 280.035 66.051 281.308 66.051C282.461 66.051 283.472 66.343 284.34 66.927C285.224 67.496 285.972 68.2971 286.586 69.3303C287.2 70.3635 287.694 71.5839 288.069 72.9915C288.443 74.399 288.705 75.9413 288.855 77.6184V79.9543C288.675 81.5416 288.398 83.024 288.024 84.4016C287.664 85.7792 287.17 86.9771 286.541 87.9954C285.927 89.0136 285.186 89.8147 284.318 90.3987C283.449 90.9677 282.439 91.2522 281.286 91.2522C280.013 91.2522 278.882 90.9976 277.894 90.4885C276.921 89.9794 276.097 89.2307 275.423 88.2424C274.764 87.2392 274.263 86.0113 273.918 84.5588C273.589 83.0914 273.424 81.4068 273.424 79.5051ZM279.713 77.8879V79.5051C279.713 80.6431 279.766 81.6239 279.87 82.4475C279.99 83.2561 280.177 83.9224 280.432 84.4465C280.702 84.9556 281.053 85.3375 281.488 85.592C281.922 85.8316 282.461 85.9514 283.105 85.9514C283.943 85.9514 284.625 85.7418 285.149 85.3225C285.673 84.8883 286.062 84.2968 286.317 83.5481C286.586 82.7844 286.736 81.9084 286.766 80.9202V76.675C286.736 75.8515 286.639 75.1103 286.474 74.4514C286.309 73.7926 286.077 73.231 285.778 72.7668C285.478 72.3027 285.104 71.9433 284.655 71.6887C284.22 71.4342 283.711 71.3069 283.127 71.3069C282.498 71.3069 281.959 71.4342 281.51 71.6887C281.076 71.9433 280.731 72.3401 280.477 72.8792C280.222 73.4032 280.028 74.0846 279.893 74.9231C279.773 75.7467 279.713 76.7349 279.713 77.8879ZM303.679 66.5002V90.803H297.368V66.5002H303.679ZM297.076 60.2112C297.076 59.2379 297.383 58.4368 297.996 57.8079C298.625 57.164 299.471 56.842 300.535 56.842C301.583 56.842 302.414 57.1565 303.028 57.7854C303.642 58.4143 303.949 59.2154 303.949 60.1887C303.949 61.162 303.642 61.9706 303.028 62.6145C302.414 63.2434 301.583 63.5579 300.535 63.5579C299.471 63.5579 298.625 63.2434 297.996 62.6145C297.383 61.9706 297.076 61.1695 297.076 60.2112ZM314.842 71.6887V90.803H308.531V66.5002H314.438L314.842 71.6887ZM313.899 77.8206L312.214 77.8655C312.184 76.0387 312.356 74.399 312.731 72.9465C313.12 71.4941 313.674 70.2587 314.393 69.2405C315.112 68.2073 315.965 67.4211 316.953 66.8821C317.942 66.328 319.057 66.051 320.3 66.051C321.229 66.051 322.082 66.2157 322.861 66.5452C323.654 66.8746 324.336 67.3987 324.905 68.1174C325.474 68.8362 325.915 69.787 326.23 70.97C326.544 72.1529 326.702 73.6129 326.702 75.3499V90.803H320.39V75.3049C320.39 74.2568 320.285 73.4482 320.076 72.8792C319.866 72.2952 319.551 71.8909 319.132 71.6663C318.728 71.4267 318.204 71.3069 317.56 71.3069C316.961 71.3069 316.429 71.4791 315.965 71.8235C315.501 72.1529 315.112 72.6096 314.797 73.1936C314.498 73.7776 314.266 74.4664 314.101 75.26C313.951 76.0536 313.884 76.9071 313.899 77.8206ZM344.086 66.5002H349.791V90.803C349.791 93.0191 349.365 94.831 348.511 96.2385C347.673 97.6611 346.497 98.7017 344.985 99.3606C343.487 100.034 341.735 100.371 339.729 100.371C338.965 100.371 338.104 100.267 337.146 100.057C336.203 99.8472 335.289 99.5253 334.406 99.0911C333.522 98.6718 332.796 98.1627 332.227 97.5637L334.361 93.2063C334.945 93.7903 335.708 94.2844 336.652 94.6887C337.595 95.108 338.523 95.3176 339.437 95.3176C340.32 95.3176 341.054 95.1754 341.638 94.8909C342.237 94.6213 342.686 94.1571 342.986 93.4983C343.3 92.8394 343.457 91.956 343.457 90.8479V72.1379L344.086 66.5002ZM330.52 79.5051V77.8879C330.52 75.9114 330.707 74.1819 331.081 72.6995C331.456 71.217 331.995 69.9817 332.699 68.9934C333.402 68.0051 334.263 67.2714 335.282 66.7922C336.315 66.2981 337.468 66.051 338.741 66.051C340.073 66.051 341.189 66.343 342.087 66.927C342.986 67.496 343.712 68.2971 344.266 69.3303C344.835 70.3635 345.269 71.5839 345.569 72.9915C345.883 74.399 346.123 75.9413 346.287 77.6184V79.9543C346.123 81.5416 345.853 83.024 345.479 84.4016C345.12 85.7792 344.64 86.9771 344.041 87.9954C343.442 89.0136 342.709 89.8147 341.84 90.3987C340.972 90.9677 339.924 91.2522 338.696 91.2522C337.438 91.2522 336.3 90.9976 335.282 90.4885C334.278 89.9794 333.417 89.2307 332.699 88.2424C331.995 87.2392 331.456 86.0113 331.081 84.5588C330.707 83.0914 330.52 81.4068 330.52 79.5051ZM336.831 77.8879V79.5051C336.831 80.6431 336.899 81.6239 337.034 82.4475C337.183 83.2561 337.408 83.9224 337.707 84.4465C338.007 84.9556 338.389 85.3375 338.853 85.592C339.332 85.8316 339.894 85.9514 340.537 85.9514C341.451 85.9514 342.177 85.7418 342.716 85.3225C343.27 84.8883 343.675 84.2968 343.929 83.5481C344.199 82.7844 344.348 81.9084 344.378 80.9202V76.675C344.363 75.8515 344.266 75.1103 344.086 74.4514C343.922 73.7926 343.689 73.231 343.39 72.7668C343.091 72.3027 342.701 71.9433 342.222 71.6887C341.758 71.4342 341.211 71.3069 340.582 71.3069C339.939 71.3069 339.384 71.4342 338.92 71.6887C338.456 71.9433 338.067 72.3401 337.752 72.8792C337.453 73.4032 337.221 74.0846 337.056 74.9231C336.906 75.7467 336.831 76.7349 336.831 77.8879ZM379.238 82.2004C379.238 81.6165 379.185 81.0849 379.08 80.6057C378.976 80.1265 378.751 79.6848 378.407 79.2805C378.077 78.8762 377.591 78.4719 376.947 78.0676C376.318 77.6633 375.494 77.2441 374.476 76.8098C373.263 76.3007 372.088 75.7616 370.95 75.1926C369.812 74.6086 368.786 73.9348 367.872 73.1711C366.959 72.4075 366.233 71.509 365.694 70.4758C365.17 69.4277 364.908 68.1998 364.908 66.7922C364.908 65.4146 365.155 64.1643 365.649 63.0413C366.158 61.9182 366.877 60.9599 367.805 60.1663C368.733 59.3577 369.819 58.7362 371.062 58.302C372.32 57.8678 373.72 57.6506 375.262 57.6506C377.358 57.6506 379.17 58.0849 380.698 58.9534C382.24 59.8219 383.43 61.0123 384.269 62.5247C385.122 64.037 385.549 65.774 385.549 67.7356H378.991C378.991 66.8072 378.856 65.9911 378.586 65.2874C378.332 64.5686 377.92 64.0071 377.351 63.6028C376.782 63.1985 376.048 62.9963 375.15 62.9963C374.311 62.9963 373.615 63.1685 373.061 63.5129C372.522 63.8424 372.118 64.2991 371.848 64.8831C371.593 65.4521 371.466 66.0959 371.466 66.8147C371.466 67.3538 371.593 67.8404 371.848 68.2747C372.118 68.6939 372.484 69.0758 372.949 69.4202C373.413 69.7496 373.959 70.0715 374.588 70.386C375.232 70.7004 375.936 71.0074 376.7 71.3069C378.182 71.8909 379.492 72.5347 380.63 73.2385C381.768 73.9273 382.719 74.706 383.483 75.5745C384.246 76.428 384.823 77.3938 385.212 78.4719C385.602 79.55 385.796 80.7779 385.796 82.1555C385.796 83.5181 385.557 84.761 385.078 85.884C384.613 86.9921 383.932 87.9504 383.034 88.759C382.135 89.5527 381.05 90.1666 379.777 90.6008C378.519 91.0351 377.111 91.2522 375.554 91.2522C374.042 91.2522 372.612 91.0426 371.264 90.6233C369.916 90.189 368.726 89.5377 367.693 88.6692C366.675 87.7857 365.873 86.6702 365.289 85.3225C364.705 83.9599 364.413 82.3502 364.413 80.4934H370.995C370.995 81.4817 371.092 82.3277 371.286 83.0315C371.481 83.7203 371.781 84.2743 372.185 84.6936C372.589 85.0979 373.083 85.4049 373.667 85.6145C374.266 85.8092 374.948 85.9065 375.711 85.9065C376.58 85.9065 377.269 85.7418 377.778 85.4124C378.302 85.0829 378.676 84.6412 378.901 84.0872C379.125 83.5331 379.238 82.9042 379.238 82.2004ZM399.722 91.2522C398.06 91.2522 396.585 90.9976 395.297 90.4885C394.024 89.9794 392.946 89.2457 392.063 88.2874C391.179 87.314 390.506 86.1386 390.041 84.761C389.577 83.3834 389.345 81.8111 389.345 80.0442V78.0452C389.345 76.0686 389.57 74.3391 390.019 72.8567C390.468 71.3593 391.105 70.1015 391.928 69.0833C392.752 68.065 393.762 67.3088 394.96 66.8147C396.173 66.3056 397.543 66.051 399.071 66.051C400.598 66.051 401.938 66.3056 403.091 66.8147C404.259 67.3088 405.225 68.0575 405.989 69.0608C406.752 70.0491 407.329 71.2769 407.718 72.7444C408.107 74.2118 408.302 75.9189 408.302 77.8655V80.7405H392.018V76.3157H402.125V75.7542C402.125 74.7659 402.021 73.9423 401.811 73.2834C401.601 72.6096 401.272 72.108 400.823 71.7786C400.373 71.4491 399.774 71.2844 399.026 71.2844C398.397 71.2844 397.865 71.4117 397.431 71.6663C396.997 71.9208 396.652 72.3176 396.398 72.8567C396.143 73.3958 395.956 74.0995 395.836 74.968C395.717 75.8215 395.657 76.8472 395.657 78.0452V80.0442C395.657 81.1672 395.754 82.1106 395.949 82.8743C396.143 83.623 396.428 84.2369 396.802 84.7161C397.191 85.1803 397.663 85.5172 398.217 85.7268C398.771 85.9215 399.415 86.0188 400.149 86.0188C401.257 86.0188 402.253 85.8241 403.136 85.4348C404.035 85.0305 404.798 84.484 405.427 83.7952L407.943 87.6135C407.509 88.1825 406.91 88.7515 406.146 89.3206C405.382 89.8896 404.469 90.3538 403.406 90.7131C402.342 91.0725 401.115 91.2522 399.722 91.2522ZM418.23 71.9133V90.803H411.941V66.5002H417.87L418.23 71.9133ZM423.957 66.3206L423.868 72.5872C423.583 72.5273 423.239 72.4823 422.834 72.4524C422.445 72.4224 422.101 72.4075 421.801 72.4075C421.097 72.4075 420.498 72.5198 420.004 72.7444C419.51 72.954 419.098 73.276 418.769 73.7102C418.454 74.1295 418.215 74.6536 418.05 75.2825C417.885 75.9114 417.788 76.6226 417.758 77.4163L416.568 76.967C416.568 75.3798 416.688 73.9273 416.927 72.6096C417.182 71.2769 417.556 70.1239 418.05 69.1506C418.544 68.1624 419.136 67.3987 419.825 66.8596C420.528 66.3206 421.322 66.051 422.205 66.051C422.505 66.051 422.819 66.081 423.149 66.1409C423.493 66.1858 423.763 66.2457 423.957 66.3206ZM434.739 85.9514L438.647 66.5002H445.205L438.535 90.803H434.604L434.739 85.9514ZM432.425 66.5002L436.401 85.9739L436.468 90.803H432.515L425.844 66.5002H432.425ZM454.841 66.5002V90.803H448.53V66.5002H454.841ZM448.238 60.2112C448.238 59.2379 448.545 58.4368 449.159 57.8079C449.787 57.164 450.634 56.842 451.697 56.842C452.745 56.842 453.576 57.1565 454.19 57.7854C454.804 58.4143 455.111 59.2154 455.111 60.1887C455.111 61.162 454.804 61.9706 454.19 62.6145C453.576 63.2434 452.745 63.5579 451.697 63.5579C450.634 63.5579 449.787 63.2434 449.159 62.6145C448.545 61.9706 448.238 61.1695 448.238 60.2112ZM468.61 86.0188C469.194 86.0188 469.695 85.899 470.115 85.6594C470.549 85.4198 470.878 85.0305 471.103 84.4915C471.328 83.9524 471.447 83.2561 471.462 82.4026H477.37C477.37 84.2294 476.98 85.8092 476.202 87.1418C475.438 88.4596 474.405 89.4778 473.102 90.1965C471.814 90.9003 470.354 91.2522 468.722 91.2522C467.09 91.2522 465.667 90.9902 464.454 90.4661C463.242 89.942 462.238 89.1783 461.445 88.175C460.666 87.1718 460.075 85.9514 459.67 84.5139C459.281 83.0614 459.086 81.3993 459.086 79.5276V77.7532C459.086 75.9114 459.281 74.2642 459.67 72.8118C460.075 71.3593 460.666 70.1314 461.445 69.1282C462.238 68.1249 463.234 67.3612 464.432 66.8372C465.645 66.3131 467.067 66.051 468.7 66.051C470.452 66.051 471.971 66.4179 473.259 67.1516C474.547 67.8704 475.55 68.9335 476.269 70.3411C477.003 71.7486 477.37 73.4856 477.37 75.552H471.462C471.447 74.6236 471.335 73.8525 471.125 73.2385C470.931 72.6096 470.624 72.1305 470.204 71.801C469.8 71.4566 469.261 71.2844 468.587 71.2844C467.884 71.2844 467.314 71.4342 466.88 71.7336C466.461 72.0181 466.139 72.4374 465.914 72.9915C465.705 73.5305 465.563 74.2043 465.488 75.0129C465.413 75.8215 465.375 76.7349 465.375 77.7532V79.5276C465.375 80.6207 465.405 81.5715 465.465 82.3801C465.54 83.1737 465.682 83.8476 465.892 84.4016C466.117 84.9407 466.439 85.345 466.858 85.6145C467.292 85.884 467.876 86.0188 468.61 86.0188ZM490.779 91.2522C489.117 91.2522 487.642 90.9976 486.354 90.4885C485.081 89.9794 484.003 89.2457 483.12 88.2874C482.236 87.314 481.562 86.1386 481.098 84.761C480.634 83.3834 480.402 81.8111 480.402 80.0442V78.0452C480.402 76.0686 480.626 74.3391 481.076 72.8567C481.525 71.3593 482.161 70.1015 482.985 69.0833C483.808 68.065 484.819 67.3088 486.017 66.8147C487.23 66.3056 488.6 66.051 490.127 66.051C491.655 66.051 492.995 66.3056 494.148 66.8147C495.316 67.3088 496.282 68.0575 497.045 69.0608C497.809 70.0491 498.385 71.2769 498.775 72.7444C499.164 74.2118 499.359 75.9189 499.359 77.8655V80.7405H483.075V76.3157H493.182V75.7542C493.182 74.7659 493.077 73.9423 492.868 73.2834C492.658 72.6096 492.328 72.108 491.879 71.7786C491.43 71.4491 490.831 71.2844 490.082 71.2844C489.453 71.2844 488.922 71.4117 488.488 71.6663C488.053 71.9208 487.709 72.3176 487.454 72.8567C487.2 73.3958 487.013 74.0995 486.893 74.968C486.773 75.8215 486.713 76.8472 486.713 78.0452V80.0442C486.713 81.1672 486.811 82.1106 487.005 82.8743C487.2 83.623 487.484 84.2369 487.859 84.7161C488.248 85.1803 488.72 85.5172 489.274 85.7268C489.828 85.9215 490.472 86.0188 491.205 86.0188C492.314 86.0188 493.309 85.8241 494.193 85.4348C495.091 85.0305 495.855 84.484 496.484 83.7952L498.999 87.6135C498.565 88.1825 497.966 88.7515 497.203 89.3206C496.439 89.8896 495.525 90.3538 494.462 90.7131C493.399 91.0725 492.171 91.2522 490.779 91.2522ZM513.779 84.2444C513.779 83.8251 513.636 83.4508 513.352 83.1213C513.067 82.7919 512.618 82.455 512.004 82.1106C511.39 81.7512 510.574 81.3544 509.556 80.9202C508.448 80.4709 507.467 80.0068 506.614 79.5276C505.76 79.0484 505.034 78.5168 504.435 77.9329C503.851 77.3489 503.409 76.6825 503.11 75.9338C502.81 75.1851 502.661 74.3316 502.661 73.3733C502.661 72.3401 502.848 71.3892 503.222 70.5208C503.611 69.6373 504.165 68.8661 504.884 68.2073C505.603 67.5334 506.479 67.0094 507.512 66.635C508.56 66.2457 509.736 66.051 511.038 66.051C512.865 66.051 514.43 66.373 515.733 67.0168C517.05 67.6458 518.061 68.5292 518.765 69.6672C519.469 70.8053 519.821 72.1305 519.821 73.6428H513.532C513.532 73.1038 513.449 72.6246 513.285 72.2053C513.12 71.7711 512.85 71.4342 512.476 71.1946C512.117 70.955 511.63 70.8352 511.016 70.8352C510.567 70.8352 510.162 70.9325 509.803 71.1272C509.459 71.3219 509.182 71.5839 508.972 71.9133C508.777 72.2278 508.68 72.6021 508.68 73.0364C508.68 73.3658 508.747 73.6578 508.882 73.9124C509.032 74.1669 509.264 74.414 509.578 74.6536C509.893 74.8931 510.312 75.1477 510.836 75.4172C511.375 75.6718 512.034 75.9563 512.813 76.2708C514.43 76.8697 515.755 77.5136 516.788 78.2024C517.837 78.8912 518.615 79.6998 519.124 80.6282C519.634 81.5416 519.888 82.6721 519.888 84.0198C519.888 85.0979 519.678 86.0787 519.259 86.9622C518.855 87.8456 518.263 88.6093 517.485 89.2532C516.706 89.8971 515.77 90.3912 514.677 90.7356C513.599 91.08 512.394 91.2522 511.061 91.2522C509.099 91.2522 507.445 90.8629 506.097 90.0842C504.749 89.3056 503.731 88.3098 503.042 87.0969C502.354 85.8691 502.009 84.5963 502.009 83.2786H507.984C508.014 84.0872 508.163 84.7236 508.433 85.1877C508.717 85.637 509.099 85.9514 509.578 86.1311C510.058 86.3108 510.589 86.4006 511.173 86.4006C511.757 86.4006 512.236 86.3258 512.611 86.176C513 86.0113 513.292 85.7642 513.487 85.4348C513.681 85.0904 513.779 84.6936 513.779 84.2444ZM542.282 90.803H535.97V64.3889C535.97 62.5172 536.292 60.9524 536.936 59.6946C537.58 58.4368 538.486 57.4784 539.654 56.8196C540.837 56.1607 542.237 55.8313 543.854 55.8313C544.378 55.8313 544.872 55.8762 545.336 55.9661C545.815 56.0409 546.28 56.1458 546.729 56.2805L546.661 61.2893C546.467 61.2294 546.235 61.1845 545.965 61.1545C545.696 61.1246 545.411 61.1096 545.112 61.1096C544.513 61.1096 543.996 61.2369 543.562 61.4915C543.143 61.746 542.821 62.1129 542.596 62.592C542.386 63.0712 542.282 63.6702 542.282 64.3889V90.803ZM546.078 66.5002V71.2395H533.005V66.5002H546.078ZM548.863 79.4827V77.843C548.863 75.9413 549.087 74.2568 549.536 72.7893C550.001 71.3219 550.66 70.094 551.513 69.1057C552.367 68.1025 553.392 67.3463 554.59 66.8372C555.803 66.3131 557.158 66.051 558.656 66.051C560.168 66.051 561.523 66.3131 562.721 66.8372C563.934 67.3463 564.967 68.1025 565.821 69.1057C566.689 70.094 567.356 71.3219 567.82 72.7893C568.284 74.2568 568.516 75.9413 568.516 77.843V79.4827C568.516 81.3694 568.284 83.0465 567.82 84.5139C567.356 85.9814 566.689 87.2167 565.821 88.22C564.967 89.2232 563.941 89.9794 562.744 90.4885C561.546 90.9976 560.198 91.2522 558.701 91.2522C557.203 91.2522 555.848 90.9976 554.635 90.4885C553.437 89.9794 552.404 89.2232 551.536 88.22C550.667 87.2167 550.001 85.9814 549.536 84.5139C549.087 83.0465 548.863 81.3694 548.863 79.4827ZM555.152 77.843V79.4827C555.152 80.6057 555.227 81.579 555.376 82.4026C555.541 83.2262 555.773 83.9075 556.073 84.4465C556.387 84.9856 556.761 85.3824 557.196 85.637C557.63 85.8915 558.132 86.0188 558.701 86.0188C559.27 86.0188 559.779 85.8915 560.228 85.637C560.677 85.3824 561.044 84.9856 561.328 84.4465C561.628 83.9075 561.845 83.2262 561.98 82.4026C562.13 81.579 562.204 80.6057 562.204 79.4827V77.843C562.204 76.7499 562.122 75.7916 561.957 74.968C561.793 74.1295 561.561 73.4482 561.261 72.9241C560.962 72.385 560.587 71.9807 560.138 71.7112C559.704 71.4267 559.21 71.2844 558.656 71.2844C558.102 71.2844 557.607 71.4267 557.173 71.7112C556.754 71.9807 556.387 72.385 556.073 72.9241C555.773 73.4482 555.541 74.1295 555.376 74.968C555.227 75.7916 555.152 76.7499 555.152 77.843ZM578.781 71.9133V90.803H572.492V66.5002H578.421L578.781 71.9133ZM584.508 66.3206L584.418 72.5872C584.134 72.5273 583.789 72.4823 583.385 72.4524C582.996 72.4224 582.651 72.4075 582.352 72.4075C581.648 72.4075 581.049 72.5198 580.555 72.7444C580.061 72.954 579.649 73.276 579.32 73.7102C579.005 74.1295 578.766 74.6536 578.601 75.2825C578.436 75.9114 578.339 76.6226 578.309 77.4163L577.119 76.967C577.119 75.3798 577.238 73.9273 577.478 72.6096C577.732 71.2769 578.107 70.1239 578.601 69.1506C579.095 68.1624 579.687 67.3987 580.375 66.8596C581.079 66.3206 581.873 66.051 582.756 66.051C583.056 66.051 583.37 66.081 583.7 66.1409C584.044 66.1858 584.314 66.2457 584.508 66.3206ZM15.2357 138.2C15.2357 137.616 15.1833 137.085 15.0785 136.606C14.9737 136.127 14.7491 135.685 14.4047 135.281C14.0752 134.876 13.5886 134.472 12.9447 134.068C12.3158 133.663 11.4922 133.244 10.474 132.81C9.26111 132.301 8.08565 131.762 6.94763 131.193C5.80961 130.609 4.78389 129.935 3.87048 129.171C2.95707 128.407 2.23083 127.509 1.69177 126.476C1.16768 125.428 0.90564 124.2 0.90564 122.792C0.90564 121.415 1.15271 120.164 1.64685 119.041C2.15597 117.918 2.87472 116.96 3.8031 116.166C4.73149 115.358 5.8171 114.736 7.05994 114.302C8.31775 113.868 9.71781 113.651 11.2601 113.651C13.3565 113.651 15.1683 114.085 16.6957 114.953C18.238 115.822 19.4284 117.012 20.267 118.525C21.1205 120.037 21.5472 121.774 21.5472 123.736H14.9886C14.9886 122.807 14.8539 121.991 14.5844 121.287C14.3298 120.569 13.918 120.007 13.349 119.603C12.78 119.198 12.0463 118.996 11.1478 118.996C10.3093 118.996 9.613 119.169 9.05896 119.513C8.5199 119.842 8.1156 120.299 7.84607 120.883C7.59151 121.452 7.46423 122.096 7.46423 122.815C7.46423 123.354 7.59151 123.84 7.84607 124.275C8.1156 124.694 8.48246 125.076 8.94666 125.42C9.41085 125.75 9.9574 126.072 10.5863 126.386C11.2302 126.7 11.934 127.007 12.6976 127.307C14.1801 127.891 15.4903 128.535 16.6283 129.239C17.7663 129.927 18.7172 130.706 19.4808 131.574C20.2445 132.428 20.821 133.394 21.2103 134.472C21.5997 135.55 21.7943 136.778 21.7943 138.156C21.7943 139.518 21.5547 140.761 21.0756 141.884C20.6114 142.992 19.9301 143.95 19.0316 144.759C18.1332 145.553 17.0476 146.167 15.7748 146.601C14.517 147.035 13.1094 147.252 11.5521 147.252C10.0398 147.252 8.60974 147.043 7.26208 146.623C5.91443 146.189 4.724 145.538 3.6908 144.669C2.67257 143.786 1.87146 142.67 1.28748 141.323C0.703491 139.96 0.411499 138.35 0.411499 136.493H6.99255C6.99255 137.482 7.08988 138.328 7.28455 139.031C7.47921 139.72 7.77869 140.274 8.18298 140.694C8.58728 141.098 9.08142 141.405 9.66541 141.615C10.2644 141.809 10.9457 141.906 11.7094 141.906C12.5778 141.906 13.2666 141.742 13.7758 141.412C14.2998 141.083 14.6742 140.641 14.8988 140.087C15.1234 139.533 15.2357 138.904 15.2357 138.2ZM37.6742 140.963V122.5H43.9857V146.803H38.056L37.6742 140.963ZM38.3929 135.954L40.1449 135.909C40.1449 137.527 39.9877 139.031 39.6732 140.424C39.3588 141.817 38.8871 143.022 38.2582 144.04C37.6442 145.059 36.8581 145.852 35.8998 146.421C34.9564 146.975 33.8409 147.252 32.5531 147.252C31.5648 147.252 30.6514 147.087 29.8129 146.758C28.9893 146.414 28.278 145.882 27.6791 145.163C27.0801 144.43 26.6084 143.494 26.264 142.356C25.9346 141.203 25.7699 139.818 25.7699 138.2V122.5H32.0814V138.268C32.0814 138.927 32.1413 139.496 32.2611 139.975C32.3809 140.439 32.5456 140.821 32.7552 141.12C32.9649 141.42 33.212 141.637 33.4965 141.772C33.781 141.892 34.1029 141.951 34.4623 141.951C35.4506 141.951 36.2292 141.697 36.7982 141.188C37.3822 140.664 37.794 139.952 38.0336 139.054C38.2732 138.141 38.3929 137.107 38.3929 135.954ZM57.35 142.019C57.934 142.019 58.4356 141.899 58.8549 141.659C59.2891 141.42 59.6185 141.031 59.8431 140.491C60.0677 139.952 60.1875 139.256 60.2025 138.403H66.1097C66.1097 140.229 65.7204 141.809 64.9418 143.142C64.1781 144.46 63.1449 145.478 61.8422 146.197C60.5544 146.9 59.0944 147.252 57.4623 147.252C55.8301 147.252 54.4076 146.99 53.1947 146.466C51.9818 145.942 50.9786 145.178 50.1849 144.175C49.4063 143.172 48.8148 141.951 48.4105 140.514C48.0212 139.061 47.8265 137.399 47.8265 135.528V133.753C47.8265 131.911 48.0212 130.264 48.4105 128.812C48.8148 127.359 49.4063 126.131 50.1849 125.128C50.9786 124.125 51.9743 123.361 53.1722 122.837C54.3851 122.313 55.8077 122.051 57.4398 122.051C59.1918 122.051 60.7116 122.418 61.9994 123.152C63.2872 123.87 64.2904 124.934 65.0092 126.341C65.7429 127.749 66.1097 129.486 66.1097 131.552H60.2025C60.1875 130.624 60.0752 129.852 59.8656 129.239C59.6709 128.61 59.364 128.13 58.9447 127.801C58.5404 127.457 58.0013 127.284 57.3275 127.284C56.6237 127.284 56.0547 127.434 55.6205 127.734C55.2012 128.018 54.8793 128.437 54.6547 128.991C54.445 129.531 54.3028 130.204 54.2279 131.013C54.153 131.822 54.1156 132.735 54.1156 133.753V135.528C54.1156 136.621 54.1455 137.572 54.2054 138.38C54.2803 139.174 54.4226 139.848 54.6322 140.402C54.8568 140.941 55.1788 141.345 55.598 141.615C56.0323 141.884 56.6163 142.019 57.35 142.019ZM78.5082 142.019C79.0922 142.019 79.5938 141.899 80.0131 141.659C80.4473 141.42 80.7767 141.031 81.0013 140.491C81.226 139.952 81.3457 139.256 81.3607 138.403H87.2679C87.2679 140.229 86.8786 141.809 86.1 143.142C85.3363 144.46 84.3031 145.478 83.0004 146.197C81.7126 146.9 80.2526 147.252 78.6205 147.252C76.9883 147.252 75.5658 146.99 74.3529 146.466C73.14 145.942 72.1368 145.178 71.3431 144.175C70.5645 143.172 69.973 141.951 69.5687 140.514C69.1794 139.061 68.9847 137.399 68.9847 135.528V133.753C68.9847 131.911 69.1794 130.264 69.5687 128.812C69.973 127.359 70.5645 126.131 71.3431 125.128C72.1368 124.125 73.1325 123.361 74.3304 122.837C75.5433 122.313 76.9659 122.051 78.598 122.051C80.35 122.051 81.8698 122.418 83.1576 123.152C84.4454 123.87 85.4486 124.934 86.1674 126.341C86.9011 127.749 87.2679 129.486 87.2679 131.552H81.3607C81.3457 130.624 81.2334 129.852 81.0238 129.239C80.8291 128.61 80.5222 128.13 80.1029 127.801C79.6986 127.457 79.1595 127.284 78.4857 127.284C77.7819 127.284 77.2129 127.434 76.7787 127.734C76.3594 128.018 76.0375 128.437 75.8129 128.991C75.6032 129.531 75.461 130.204 75.3861 131.013C75.3112 131.822 75.2738 132.735 75.2738 133.753V135.528C75.2738 136.621 75.3038 137.572 75.3636 138.38C75.4385 139.174 75.5808 139.848 75.7904 140.402C76.015 140.941 76.337 141.345 76.7562 141.615C77.1905 141.884 77.7745 142.019 78.5082 142.019ZM100.677 147.252C99.015 147.252 97.5401 146.998 96.2523 146.489C94.9795 145.979 93.9014 145.246 93.0179 144.287C92.1345 143.314 91.4607 142.139 90.9965 140.761C90.5323 139.383 90.3002 137.811 90.3002 136.044V134.045C90.3002 132.069 90.5248 130.339 90.974 128.857C91.4232 127.359 92.0596 126.101 92.8832 125.083C93.7067 124.065 94.7175 123.309 95.9154 122.815C97.1283 122.306 98.4984 122.051 100.026 122.051C101.553 122.051 102.893 122.306 104.046 122.815C105.214 123.309 106.18 124.058 106.944 125.061C107.707 126.049 108.284 127.277 108.673 128.744C109.063 130.212 109.257 131.919 109.257 133.865V136.74H92.973V132.316H103.08V131.754C103.08 130.766 102.976 129.942 102.766 129.283C102.556 128.61 102.227 128.108 101.778 127.779C101.328 127.449 100.73 127.284 99.9808 127.284C99.3519 127.284 98.8204 127.412 98.3861 127.666C97.9519 127.921 97.6075 128.318 97.3529 128.857C97.0983 129.396 96.9112 130.1 96.7914 130.968C96.6716 131.822 96.6117 132.847 96.6117 134.045V136.044C96.6117 137.167 96.709 138.111 96.9037 138.874C97.0983 139.623 97.3829 140.237 97.7572 140.716C98.1465 141.18 98.6182 141.517 99.1722 141.727C99.7263 141.921 100.37 142.019 101.104 142.019C102.212 142.019 103.208 141.824 104.091 141.435C104.99 141.031 105.753 140.484 106.382 139.795L108.898 143.614C108.464 144.183 107.865 144.752 107.101 145.321C106.337 145.89 105.424 146.354 104.361 146.713C103.298 147.073 102.07 147.252 100.677 147.252ZM123.677 140.244C123.677 139.825 123.535 139.451 123.25 139.121C122.966 138.792 122.517 138.455 121.903 138.111C121.289 137.751 120.473 137.354 119.454 136.92C118.346 136.471 117.366 136.007 116.512 135.528C115.659 135.048 114.932 134.517 114.333 133.933C113.749 133.349 113.308 132.683 113.008 131.934C112.709 131.185 112.559 130.332 112.559 129.373C112.559 128.34 112.746 127.389 113.12 126.521C113.51 125.637 114.064 124.866 114.783 124.207C115.501 123.533 116.377 123.009 117.411 122.635C118.459 122.246 119.634 122.051 120.937 122.051C122.764 122.051 124.328 122.373 125.631 123.017C126.949 123.646 127.96 124.529 128.663 125.667C129.367 126.805 129.719 128.13 129.719 129.643H123.43C123.43 129.104 123.348 128.625 123.183 128.205C123.018 127.771 122.749 127.434 122.374 127.195C122.015 126.955 121.528 126.835 120.914 126.835C120.465 126.835 120.061 126.933 119.702 127.127C119.357 127.322 119.08 127.584 118.87 127.913C118.676 128.228 118.578 128.602 118.578 129.036C118.578 129.366 118.646 129.658 118.781 129.912C118.93 130.167 119.162 130.414 119.477 130.654C119.791 130.893 120.211 131.148 120.735 131.417C121.274 131.672 121.933 131.956 122.711 132.271C124.328 132.87 125.654 133.514 126.687 134.202C127.735 134.891 128.514 135.7 129.023 136.628C129.532 137.542 129.786 138.672 129.786 140.02C129.786 141.098 129.577 142.079 129.158 142.962C128.753 143.846 128.162 144.609 127.383 145.253C126.605 145.897 125.669 146.391 124.576 146.736C123.497 147.08 122.292 147.252 120.959 147.252C118.998 147.252 117.343 146.863 115.995 146.084C114.648 145.306 113.63 144.31 112.941 143.097C112.252 141.869 111.908 140.596 111.908 139.279H117.882C117.912 140.087 118.062 140.724 118.331 141.188C118.616 141.637 118.998 141.951 119.477 142.131C119.956 142.311 120.488 142.401 121.072 142.401C121.656 142.401 122.135 142.326 122.509 142.176C122.898 142.011 123.19 141.764 123.385 141.435C123.58 141.09 123.677 140.694 123.677 140.244ZM144.566 140.244C144.566 139.825 144.424 139.451 144.139 139.121C143.855 138.792 143.405 138.455 142.791 138.111C142.177 137.751 141.361 137.354 140.343 136.92C139.235 136.471 138.254 136.007 137.401 135.528C136.547 135.048 135.821 134.517 135.222 133.933C134.638 133.349 134.196 132.683 133.897 131.934C133.597 131.185 133.448 130.332 133.448 129.373C133.448 128.34 133.635 127.389 134.009 126.521C134.398 125.637 134.953 124.866 135.671 124.207C136.39 123.533 137.266 123.009 138.299 122.635C139.347 122.246 140.523 122.051 141.826 122.051C143.652 122.051 145.217 122.373 146.52 123.017C147.838 123.646 148.848 124.529 149.552 125.667C150.256 126.805 150.608 128.13 150.608 129.643H144.319C144.319 129.104 144.236 128.625 144.072 128.205C143.907 127.771 143.637 127.434 143.263 127.195C142.904 126.955 142.417 126.835 141.803 126.835C141.354 126.835 140.95 126.933 140.59 127.127C140.246 127.322 139.969 127.584 139.759 127.913C139.564 128.228 139.467 128.602 139.467 129.036C139.467 129.366 139.535 129.658 139.669 129.912C139.819 130.167 140.051 130.414 140.366 130.654C140.68 130.893 141.099 131.148 141.623 131.417C142.162 131.672 142.821 131.956 143.6 132.271C145.217 132.87 146.542 133.514 147.576 134.202C148.624 134.891 149.402 135.7 149.911 136.628C150.421 137.542 150.675 138.672 150.675 140.02C150.675 141.098 150.466 142.079 150.046 142.962C149.642 143.846 149.05 144.609 148.272 145.253C147.493 145.897 146.557 146.391 145.464 146.736C144.386 147.08 143.181 147.252 141.848 147.252C139.886 147.252 138.232 146.863 136.884 146.084C135.536 145.306 134.518 144.31 133.829 143.097C133.141 141.869 132.796 140.596 132.796 139.279H138.771C138.801 140.087 138.951 140.724 139.22 141.188C139.505 141.637 139.886 141.951 140.366 142.131C140.845 142.311 141.376 142.401 141.96 142.401C142.544 142.401 143.023 142.326 143.398 142.176C143.787 142.011 144.079 141.764 144.274 141.435C144.468 141.09 144.566 140.694 144.566 140.244Z" fill="url(#paint0_linear_332_550)"/>
<defs>
<linearGradient id="paint0_linear_332_550" x1="15.8747" y1="62.9611" x2="492.859" y2="86.2376" gradientUnits="userSpaceOnUse">
<stop stop-color="#2BBFB0"/>
<stop offset="1" stop-color="#333E50"/>
</linearGradient>
</defs>
</svg>
