<svg width="276" height="321" viewBox="0 0 276 321" fill="none" xmlns="http://www.w3.org/2000/svg">
<path d="M249.788 107.227C276.379 91.5749 285.651 56.2406 261.846 36.6092C252.016 28.5023 241.202 21.5568 229.606 15.9592C201.108 2.20207 169.17 -2.79541 137.832 1.59873C106.493 5.99287 77.1615 19.5812 53.5457 40.6455C29.93 61.7098 13.0909 89.304 5.15788 119.938C-2.77517 150.573 -1.44588 182.872 8.97765 212.751C19.4012 242.63 38.4508 268.747 63.7176 287.8C88.9843 306.852 119.333 317.984 150.927 319.788C163.782 320.523 176.608 319.699 189.138 317.382C219.479 311.772 228.523 276.379 212.871 249.788L198.951 226.141C190.987 212.61 172.972 209.128 157.297 208.233C147.767 207.689 138.613 204.331 130.991 198.584C123.37 192.837 117.623 184.959 114.479 175.946C111.335 166.933 110.934 157.19 113.327 147.95C115.72 138.709 120.799 130.386 127.923 124.032C135.046 117.678 143.894 113.579 153.347 112.254C162.8 110.928 172.434 112.436 181.03 116.585C195.17 123.411 212.61 129.11 226.141 121.146L249.788 107.227Z" fill="url(#paint0_linear_332_546)" fill-opacity="0.15"/>
<defs>
<linearGradient id="paint0_linear_332_546" x1="78.8866" y1="22.1621" x2="241.211" y2="297.935" gradientUnits="userSpaceOnUse">
<stop stop-color="#2BBFB0"/>
<stop offset="1" stop-color="#333E50"/>
</linearGradient>
</defs>
</svg>
